<svg width="408" height="408" viewBox="0 0 408 408" fill="none" xmlns="http://www.w3.org/2000/svg">
    <path d="M308.203 186.587C308.203 186.587 311.035 176.999 320.639 156.713C333.785 128.969 314.886 97.7486 277.44 81.4694C233.539 62.3995 177.072 69.5069 136.345 81.1593C102.677 90.8045 88.7645 115.986 82.7098 141.086C79.6335 153.808 79.0541 166.815 77.112 179.708C74.5335 196.893 68.9031 214.347 63.9744 231.181C58.0258 251.516 52.1179 274.478 60.5227 296.461C86.4144 364.075 228.692 366.996 284.678 335.702C316.331 318.02 327.991 292.014 317.318 261.667C309.395 239.186 301.708 208.504 308.203 186.587Z" fill="#3B5775"/>
    <path opacity="0.7" d="M308.203 186.587C308.203 186.587 311.035 176.999 320.639 156.713C333.785 128.969 314.886 97.7486 277.44 81.4694C233.539 62.3995 177.072 69.5069 136.345 81.1593C102.677 90.8045 88.7645 115.986 82.7098 141.086C79.6335 153.808 79.0541 166.815 77.112 179.708C74.5335 196.893 68.9031 214.347 63.9744 231.181C58.0258 251.516 52.1179 274.478 60.5227 296.461C86.4144 364.075 228.692 366.996 284.678 335.702C316.331 318.02 327.991 292.014 317.318 261.667C309.395 239.186 301.708 208.504 308.203 186.587Z" fill="white"/>
    <path opacity="0.3" d="M273.295 127.451C273.421 127.47 273.55 127.458 273.671 127.418C273.792 127.377 273.902 127.309 273.992 127.219C274.082 127.128 274.149 127.018 274.189 126.896C274.228 126.775 274.239 126.646 274.219 126.52C274.2 126.394 274.151 126.274 274.077 126.17C274.003 126.066 273.906 125.981 273.793 125.922C273.68 125.862 273.555 125.83 273.427 125.828C273.299 125.826 273.173 125.853 273.058 125.909L269.965 126.39L269.876 125.803L272.968 125.321C273.126 125.245 273.254 125.121 273.336 124.966C273.417 124.812 273.447 124.635 273.42 124.463C273.394 124.29 273.312 124.131 273.189 124.007C273.065 123.884 272.904 123.804 272.732 123.779L269.631 124.269L268.97 120.001L259.684 111.612L138.043 335.196L147.361 341.496L299.741 317.75L298.044 306.816L301.137 306.335C301.264 306.355 301.394 306.345 301.517 306.306C301.639 306.267 301.751 306.199 301.842 306.108C301.934 306.018 302.002 305.907 302.042 305.784C302.083 305.662 302.093 305.532 302.074 305.405C302.054 305.277 302.005 305.157 301.929 305.052C301.854 304.948 301.755 304.863 301.641 304.804C301.526 304.745 301.4 304.714 301.271 304.713C301.142 304.713 301.015 304.743 300.9 304.8L297.799 305.282L297.709 304.686L300.81 304.205C300.911 304.19 301.007 304.155 301.094 304.103C301.181 304.05 301.257 303.981 301.317 303.899C301.377 303.817 301.42 303.724 301.444 303.625C301.467 303.526 301.471 303.424 301.455 303.324C301.415 303.123 301.302 302.945 301.137 302.824C300.973 302.703 300.768 302.648 300.565 302.671L297.473 303.152L296.575 297.399L299.676 296.918C299.827 296.841 299.95 296.72 300.028 296.57C300.107 296.42 300.137 296.25 300.114 296.083C300.092 295.915 300.018 295.759 299.903 295.635C299.788 295.511 299.637 295.426 299.472 295.392L296.379 295.873L296.29 295.286L299.382 294.804C299.54 294.729 299.668 294.604 299.75 294.45C299.831 294.295 299.861 294.119 299.834 293.946C299.808 293.773 299.726 293.614 299.602 293.491C299.479 293.368 299.318 293.288 299.146 293.262L296.045 293.744L295.155 288.032L298.248 287.542C298.349 287.528 298.446 287.494 298.534 287.442C298.621 287.39 298.697 287.321 298.757 287.238C298.818 287.156 298.861 287.063 298.884 286.963C298.907 286.864 298.91 286.761 298.893 286.661C298.853 286.462 298.741 286.285 298.578 286.164C298.415 286.044 298.213 285.988 298.011 286.008L294.911 286.489L294.821 285.902L297.913 285.42C298.071 285.345 298.199 285.22 298.281 285.066C298.362 284.911 298.392 284.735 298.365 284.562C298.339 284.389 298.258 284.23 298.134 284.107C298.01 283.984 297.85 283.904 297.677 283.878L294.584 284.36L293.687 278.648L296.779 278.166C296.936 278.09 297.065 277.966 297.147 277.811C297.228 277.657 297.257 277.48 297.231 277.308C297.205 277.135 297.123 276.975 296.999 276.852C296.875 276.729 296.715 276.649 296.543 276.624L293.45 277.105L293.352 276.518L296.453 276.036C296.652 275.995 296.828 275.881 296.947 275.716C297.066 275.552 297.12 275.349 297.097 275.147C297.084 275.046 297.05 274.949 296.997 274.861C296.945 274.774 296.876 274.698 296.794 274.638C296.711 274.578 296.618 274.535 296.519 274.511C296.419 274.488 296.317 274.485 296.216 274.502L293.115 274.984L292.226 269.272L295.319 268.79C295.517 268.749 295.694 268.635 295.813 268.47C295.932 268.306 295.986 268.103 295.963 267.901C295.949 267.8 295.915 267.703 295.863 267.615C295.811 267.528 295.742 267.452 295.659 267.392C295.577 267.331 295.484 267.288 295.384 267.265C295.285 267.242 295.182 267.239 295.082 267.256L291.981 267.738L291.891 267.142L294.984 266.661C295.111 266.681 295.241 266.672 295.364 266.632C295.486 266.593 295.598 266.525 295.689 266.434C295.781 266.344 295.85 266.233 295.89 266.11C295.93 265.988 295.941 265.858 295.921 265.731C295.902 265.604 295.852 265.483 295.777 265.378C295.702 265.274 295.603 265.189 295.488 265.13C295.374 265.071 295.247 265.04 295.118 265.039C294.989 265.039 294.862 265.069 294.747 265.127L291.655 265.608L290.757 259.855L293.85 259.374C293.977 259.394 294.107 259.385 294.23 259.345C294.352 259.306 294.464 259.238 294.555 259.148C294.647 259.057 294.715 258.946 294.756 258.824C294.796 258.701 294.807 258.571 294.787 258.444C294.767 258.317 294.718 258.196 294.643 258.091C294.567 257.987 294.468 257.902 294.354 257.843C294.239 257.784 294.113 257.753 293.984 257.752C293.855 257.752 293.728 257.782 293.613 257.84L290.52 258.321L290.423 257.725L293.523 257.244C293.65 257.264 293.78 257.253 293.903 257.213C294.025 257.173 294.136 257.104 294.226 257.013C294.317 256.922 294.385 256.811 294.424 256.688C294.464 256.566 294.474 256.436 294.454 256.309C294.433 256.182 294.383 256.062 294.308 255.958C294.232 255.854 294.133 255.769 294.018 255.711C293.904 255.652 293.777 255.622 293.649 255.622C293.52 255.621 293.393 255.652 293.279 255.71L290.186 256.191L289.288 250.439L292.389 249.957C292.516 249.977 292.646 249.966 292.768 249.926C292.89 249.886 293.001 249.817 293.092 249.726C293.183 249.635 293.251 249.524 293.29 249.401C293.33 249.279 293.34 249.149 293.319 249.022C293.299 248.895 293.249 248.775 293.174 248.671C293.098 248.567 292.999 248.482 292.884 248.424C292.77 248.365 292.643 248.335 292.514 248.335C292.386 248.335 292.259 248.365 292.144 248.423L289.052 248.904L288.962 248.309L292.055 247.827C292.253 247.788 292.43 247.676 292.551 247.513C292.672 247.35 292.727 247.148 292.707 246.946C292.668 246.746 292.554 246.567 292.39 246.447C292.225 246.326 292.021 246.271 291.818 246.293L288.717 246.775L287.828 241.063L290.92 240.581C291.119 240.542 291.296 240.43 291.417 240.267C291.538 240.104 291.593 239.902 291.573 239.7C291.533 239.5 291.42 239.321 291.255 239.201C291.091 239.08 290.887 239.025 290.684 239.047L287.591 239.529L287.493 238.941L290.594 238.46C290.751 238.383 290.88 238.258 290.961 238.103C291.042 237.948 291.071 237.771 291.043 237.598C291.016 237.425 290.933 237.266 290.809 237.143C290.684 237.021 290.522 236.941 290.349 236.917L287.256 237.399L286.359 231.687L289.46 231.205C289.617 231.129 289.746 231.004 289.827 230.849C289.908 230.694 289.936 230.516 289.909 230.344C289.882 230.171 289.799 230.011 289.674 229.889C289.549 229.766 289.388 229.687 289.215 229.663L286.122 230.145L286.032 229.557L289.125 229.076C289.282 229 289.411 228.875 289.492 228.721C289.574 228.566 289.603 228.39 289.577 228.217C289.55 228.044 289.469 227.885 289.345 227.762C289.221 227.639 289.061 227.559 288.888 227.533L285.788 228.023L284.898 222.311L287.991 221.83C288.148 221.754 288.277 221.629 288.358 221.475C288.44 221.32 288.469 221.144 288.443 220.971C288.416 220.798 288.335 220.639 288.211 220.516C288.087 220.393 287.927 220.313 287.754 220.287L284.653 220.769L284.564 220.181L287.656 219.7C287.783 219.72 287.914 219.711 288.036 219.671C288.159 219.632 288.27 219.564 288.362 219.474C288.453 219.383 288.522 219.272 288.562 219.15C288.602 219.027 288.613 218.897 288.594 218.77C288.574 218.643 288.524 218.522 288.449 218.417C288.374 218.313 288.275 218.228 288.161 218.169C288.046 218.11 287.919 218.079 287.79 218.078C287.662 218.078 287.535 218.108 287.42 218.166L284.327 218.647L283.429 212.894L286.522 212.413C286.649 212.434 286.779 212.424 286.902 212.385C287.025 212.345 287.136 212.277 287.228 212.187C287.319 212.096 287.388 211.985 287.428 211.863C287.468 211.74 287.479 211.61 287.459 211.483C287.44 211.356 287.39 211.235 287.315 211.131C287.24 211.026 287.141 210.941 287.026 210.882C286.912 210.823 286.785 210.792 286.656 210.792C286.527 210.791 286.4 210.821 286.285 210.879L283.193 211.36L283.103 210.765L286.196 210.283C286.35 210.206 286.475 210.081 286.554 209.928C286.633 209.775 286.661 209.601 286.635 209.43C286.608 209.26 286.529 209.102 286.408 208.98C286.286 208.858 286.129 208.777 285.959 208.749L282.858 209.231L281.969 203.519L285.061 203.037C285.215 202.96 285.341 202.835 285.42 202.682C285.498 202.529 285.527 202.354 285.501 202.184C285.474 202.014 285.395 201.856 285.273 201.734C285.152 201.611 284.995 201.531 284.825 201.503L281.724 201.984L281.634 201.389L284.727 200.907C284.926 200.868 285.103 200.756 285.223 200.593C285.344 200.43 285.4 200.228 285.38 200.026C285.34 199.826 285.227 199.647 285.062 199.527C284.897 199.406 284.693 199.351 284.49 199.373L281.398 199.855L280.5 194.102L283.593 193.62C283.72 193.641 283.85 193.631 283.973 193.592C284.095 193.553 284.207 193.485 284.298 193.394C284.39 193.304 284.458 193.193 284.498 193.07C284.539 192.948 284.549 192.818 284.53 192.691C284.51 192.563 284.461 192.443 284.385 192.338C284.31 192.234 284.211 192.148 284.097 192.09C283.982 192.031 283.856 192 283.727 191.999C283.598 191.998 283.471 192.028 283.356 192.086L280.263 192.568L280.165 191.98L283.266 191.499C283.424 191.422 283.552 191.297 283.633 191.142C283.714 190.987 283.743 190.81 283.716 190.637C283.688 190.464 283.606 190.305 283.481 190.182C283.356 190.06 283.195 189.981 283.021 189.957L279.929 190.438L279.031 184.726L282.132 184.236C282.286 184.159 282.411 184.035 282.49 183.881C282.569 183.728 282.597 183.554 282.571 183.383C282.545 183.213 282.465 183.055 282.344 182.933C282.223 182.811 282.065 182.73 281.895 182.702L278.795 183.184L278.705 182.596L281.797 182.115C281.955 182.039 282.083 181.915 282.165 181.76C282.246 181.605 282.276 181.429 282.249 181.256C282.223 181.084 282.142 180.924 282.018 180.801C281.894 180.678 281.734 180.598 281.561 180.573L278.468 181.054L277.571 175.342L280.663 174.861C280.789 174.879 280.918 174.868 281.039 174.827C281.16 174.787 281.27 174.719 281.36 174.628C281.45 174.538 281.518 174.427 281.557 174.306C281.597 174.185 281.607 174.056 281.588 173.929C281.569 173.803 281.52 173.683 281.446 173.58C281.372 173.476 281.274 173.391 281.161 173.331C281.048 173.272 280.923 173.24 280.795 173.237C280.668 173.235 280.541 173.263 280.427 173.318L277.334 173.8L277.236 173.212L280.337 172.731C280.464 172.751 280.594 172.74 280.716 172.7C280.838 172.66 280.949 172.591 281.04 172.5C281.13 172.409 281.198 172.298 281.238 172.175C281.277 172.053 281.287 171.923 281.267 171.796C281.247 171.669 281.197 171.548 281.121 171.444C281.046 171.34 280.946 171.256 280.832 171.197C280.717 171.139 280.591 171.109 280.462 171.108C280.333 171.108 280.207 171.139 280.092 171.197L276.999 171.678L276.102 165.966L279.203 165.485C279.357 165.407 279.482 165.282 279.56 165.128C279.639 164.974 279.666 164.799 279.639 164.629C279.612 164.458 279.531 164.301 279.409 164.179C279.286 164.057 279.128 163.977 278.958 163.951L275.865 164.432L275.775 163.836L278.868 163.355C278.995 163.376 279.125 163.366 279.248 163.327C279.37 163.287 279.482 163.22 279.573 163.129C279.665 163.038 279.734 162.927 279.774 162.805C279.814 162.683 279.825 162.552 279.805 162.425C279.786 162.298 279.736 162.177 279.661 162.073C279.586 161.968 279.487 161.883 279.372 161.824C279.258 161.765 279.131 161.734 279.002 161.734C278.873 161.733 278.746 161.763 278.631 161.821L275.531 162.302L274.641 156.55L277.734 156.068C277.861 156.089 277.991 156.079 278.114 156.04C278.236 156 278.348 155.933 278.439 155.842C278.531 155.751 278.599 155.64 278.64 155.518C278.68 155.396 278.691 155.266 278.671 155.138C278.651 155.011 278.602 154.89 278.527 154.786C278.451 154.681 278.352 154.596 278.238 154.537C278.123 154.478 277.997 154.447 277.868 154.447C277.739 154.446 277.612 154.476 277.497 154.534L274.396 155.016L274.307 154.42L277.407 153.938C277.561 153.86 277.687 153.735 277.765 153.581C277.843 153.428 277.871 153.253 277.844 153.082C277.817 152.912 277.736 152.754 277.614 152.632C277.491 152.511 277.333 152.431 277.163 152.404L274.07 152.886L273.172 147.133L276.273 146.652C276.427 146.573 276.552 146.448 276.631 146.294C276.709 146.141 276.737 145.966 276.71 145.795C276.682 145.625 276.602 145.467 276.479 145.345C276.357 145.224 276.199 145.144 276.028 145.117L272.936 145.599L272.846 145.003L275.939 144.522C276.137 144.482 276.314 144.37 276.435 144.207C276.556 144.044 276.611 143.842 276.591 143.64C276.552 143.44 276.438 143.262 276.274 143.141C276.109 143.02 275.905 142.965 275.702 142.988L272.601 143.469L271.712 137.716L274.804 137.235C275.003 137.195 275.18 137.083 275.301 136.92C275.422 136.757 275.477 136.555 275.457 136.354C275.417 136.153 275.304 135.975 275.139 135.854C274.975 135.733 274.771 135.679 274.568 135.701L271.467 136.182L271.377 135.595L274.47 135.113C274.627 135.037 274.756 134.913 274.837 134.758C274.918 134.604 274.948 134.427 274.922 134.255C274.895 134.082 274.814 133.923 274.69 133.799C274.566 133.676 274.406 133.596 274.233 133.571L271.14 134.052L270.243 128.34L273.295 127.451Z" fill="black"/>
    <path d="M142.963 337.326L284.254 315.343L252.723 112.69L111.425 134.722C110.568 134.855 109.746 135.156 109.005 135.607C108.265 136.058 107.62 136.65 107.109 137.351C106.597 138.051 106.229 138.845 106.024 139.687C105.82 140.53 105.783 141.405 105.917 142.261L135.456 331.818C135.723 333.543 136.664 335.091 138.071 336.124C139.478 337.156 141.238 337.589 142.963 337.326Z" fill="#263238" stroke="#263238" stroke-miterlimit="10" stroke-linecap="round"/>
    <path d="M145.587 330.243L137.524 331.498C136.958 331.586 136.379 331.446 135.916 331.107C135.453 330.769 135.143 330.261 135.055 329.694L132.218 311.472C132.129 310.905 132.27 310.327 132.608 309.864C132.947 309.401 133.455 309.091 134.022 309.003L142.084 307.747L145.587 330.243Z" fill="white" stroke="#263238" stroke-miterlimit="10" stroke-linecap="round"/>
    <path d="M141.912 306.596L133.849 307.851C133.283 307.939 132.704 307.799 132.241 307.461C131.778 307.122 131.468 306.614 131.38 306.047L128.543 287.825C128.454 287.258 128.595 286.68 128.933 286.217C129.272 285.754 129.78 285.444 130.347 285.356L138.409 284.1L141.912 306.596Z" fill="#3B5775" stroke="#263238" stroke-miterlimit="10" stroke-linecap="round"/>
    <path d="M138.223 282.908L130.16 284.164C129.593 284.252 129.015 284.112 128.552 283.773C128.088 283.435 127.779 282.927 127.69 282.36L124.853 264.138C124.765 263.571 124.906 262.993 125.244 262.53C125.582 262.066 126.091 261.757 126.657 261.668L134.72 260.413L138.223 282.908Z" fill="white" stroke="#263238" stroke-miterlimit="10" stroke-linecap="round"/>
    <path d="M134.549 259.27L126.486 260.525C125.919 260.613 125.341 260.473 124.878 260.135C124.415 259.796 124.105 259.288 124.017 258.721L121.18 240.499C121.091 239.932 121.232 239.354 121.57 238.891C121.908 238.428 122.417 238.118 122.984 238.03L131.046 236.774L134.549 259.27Z" fill="#3B5775" stroke="#263238" stroke-miterlimit="10" stroke-linecap="round"/>
    <path d="M119.332 214.38L124.154 213.629L111.857 134.64L259.684 111.637L291.214 314.282L143.396 337.261L127.655 236.126L122.832 236.877C122.269 236.961 121.695 236.819 121.236 236.481C120.777 236.143 120.471 235.637 120.384 235.073L117.504 216.852C117.46 216.569 117.473 216.281 117.541 216.003C117.609 215.726 117.732 215.464 117.902 215.234C118.072 215.004 118.286 214.81 118.531 214.664C118.777 214.517 119.049 214.42 119.332 214.38Z" fill="white" stroke="#263238" stroke-miterlimit="10" stroke-linecap="round"/>
    <path d="M135.138 177.79L135.627 188.863L190.789 179.863L189.345 170.593L135.138 177.79Z" fill="#3B5775"/>
    <path d="M251.467 124.032C251.548 124.599 251.797 125.129 252.18 125.555C252.564 125.981 253.066 126.283 253.622 126.422C254.177 126.562 254.762 126.534 255.302 126.34C255.841 126.146 256.311 125.797 256.651 125.336C256.991 124.874 257.186 124.322 257.212 123.75C257.237 123.177 257.092 122.61 256.794 122.12C256.497 121.631 256.06 121.241 255.54 121C255.02 120.759 254.44 120.678 253.874 120.768C253.124 120.887 252.452 121.296 252.001 121.907C251.551 122.517 251.359 123.281 251.467 124.032Z" fill="#263238" stroke="#263238" stroke-miterlimit="10" stroke-linecap="round"/>
    <path d="M254.592 123.134L263.225 121.788C263.424 121.747 263.6 121.633 263.72 121.468C263.839 121.304 263.892 121.1 263.87 120.899C263.828 120.7 263.714 120.523 263.55 120.404C263.385 120.285 263.182 120.231 262.98 120.254L254.38 121.584C254.179 121.624 254.001 121.737 253.88 121.902C253.759 122.066 253.705 122.27 253.727 122.473C253.765 122.671 253.874 122.847 254.033 122.969C254.193 123.091 254.392 123.15 254.592 123.134Z" fill="white" stroke="#263238" stroke-miterlimit="10" stroke-linecap="round"/>
    <path d="M254.951 125.256L263.568 123.918C263.768 123.878 263.947 123.765 264.067 123.6C264.188 123.435 264.243 123.231 264.221 123.028C264.181 122.828 264.068 122.65 263.903 122.529C263.738 122.408 263.534 122.353 263.331 122.376L254.698 123.722C254.499 123.763 254.323 123.877 254.204 124.042C254.084 124.206 254.031 124.409 254.053 124.611C254.095 124.812 254.21 124.989 254.377 125.109C254.543 125.228 254.748 125.281 254.951 125.256Z" fill="white" stroke="#263238" stroke-miterlimit="10" stroke-linecap="round"/>
    <path d="M252.96 133.44C253.04 134.006 253.286 134.536 253.668 134.962C254.049 135.388 254.548 135.691 255.101 135.833C255.655 135.976 256.238 135.95 256.778 135.761C257.317 135.571 257.788 135.226 258.131 134.769C258.474 134.311 258.674 133.763 258.705 133.192C258.735 132.621 258.596 132.054 258.305 131.562C258.013 131.071 257.582 130.676 257.067 130.43C256.551 130.183 255.974 130.095 255.408 130.176C254.651 130.286 253.968 130.69 253.509 131.302C253.05 131.914 252.853 132.683 252.96 133.44Z" fill="#263238" stroke="#263238" stroke-miterlimit="10" stroke-linecap="round"/>
    <path d="M256.085 132.543L264.71 131.205C264.911 131.165 265.089 131.052 265.21 130.887C265.331 130.722 265.385 130.518 265.363 130.315C265.324 130.115 265.21 129.937 265.046 129.816C264.881 129.695 264.677 129.64 264.474 129.662L255.84 131.009C255.642 131.05 255.465 131.164 255.346 131.329C255.227 131.493 255.173 131.696 255.196 131.898C255.237 132.097 255.351 132.273 255.516 132.393C255.68 132.512 255.883 132.565 256.085 132.543Z" fill="white" stroke="#263238" stroke-miterlimit="10" stroke-linecap="round"/>
    <path d="M256.412 134.64L265.045 133.302C265.244 133.26 265.42 133.146 265.539 132.982C265.659 132.817 265.712 132.614 265.69 132.412C265.65 132.212 265.537 132.034 265.372 131.913C265.207 131.792 265.003 131.737 264.8 131.76L256.175 133.106C255.975 133.146 255.796 133.259 255.676 133.424C255.555 133.588 255.5 133.792 255.522 133.995C255.564 134.194 255.678 134.371 255.842 134.49C256.007 134.609 256.21 134.663 256.412 134.64Z" fill="white" stroke="#263238" stroke-miterlimit="10" stroke-linecap="round"/>
    <path d="M254.396 142.857C254.478 143.424 254.726 143.955 255.11 144.38C255.494 144.806 255.995 145.108 256.551 145.248C257.107 145.387 257.692 145.359 258.231 145.165C258.77 144.972 259.24 144.622 259.58 144.161C259.92 143.7 260.116 143.148 260.141 142.575C260.167 142.002 260.021 141.435 259.724 140.946C259.426 140.456 258.989 140.066 258.469 139.825C257.949 139.584 257.369 139.503 256.803 139.593C256.054 139.712 255.381 140.121 254.931 140.732C254.48 141.342 254.288 142.106 254.396 142.857Z" fill="#263238" stroke="#263238" stroke-miterlimit="10" stroke-linecap="round"/>
    <path d="M257.546 141.984L266.179 140.646C266.378 140.604 266.554 140.49 266.674 140.326C266.793 140.161 266.846 139.958 266.824 139.756C266.784 139.556 266.671 139.378 266.506 139.257C266.341 139.136 266.137 139.081 265.934 139.103L257.309 140.45C257.109 140.49 256.931 140.603 256.81 140.768C256.689 140.932 256.634 141.136 256.656 141.339C256.698 141.538 256.812 141.715 256.976 141.834C257.141 141.953 257.344 142.007 257.546 141.984Z" fill="white" stroke="#263238" stroke-miterlimit="10" stroke-linecap="round"/>
    <path d="M257.856 144.089L266.481 142.743C266.68 142.703 266.857 142.591 266.978 142.428C267.098 142.265 267.154 142.063 267.134 141.862C267.094 141.661 266.981 141.483 266.816 141.362C266.652 141.241 266.448 141.187 266.244 141.209L257.619 142.555C257.42 142.595 257.243 142.707 257.123 142.87C257.002 143.033 256.946 143.235 256.967 143.436C257.006 143.637 257.12 143.815 257.284 143.936C257.449 144.057 257.653 144.112 257.856 144.089Z" fill="white" stroke="#263238" stroke-miterlimit="10" stroke-linecap="round"/>
    <path d="M255.857 152.274C255.937 152.84 256.183 153.369 256.564 153.795C256.946 154.221 257.445 154.524 257.998 154.667C258.552 154.809 259.135 154.784 259.675 154.594C260.214 154.405 260.685 154.059 261.028 153.602C261.371 153.145 261.57 152.596 261.601 152.025C261.632 151.454 261.493 150.887 261.202 150.396C260.91 149.904 260.479 149.51 259.963 149.263C259.448 149.016 258.871 148.928 258.305 149.01C257.548 149.119 256.865 149.524 256.406 150.136C255.947 150.748 255.75 151.516 255.857 152.274Z" fill="#263238" stroke="#263238" stroke-miterlimit="10" stroke-linecap="round"/>
    <path d="M259.015 151.376L267.648 150.03C267.847 149.99 268.024 149.878 268.145 149.715C268.265 149.552 268.321 149.35 268.301 149.149C268.261 148.948 268.148 148.77 267.983 148.649C267.818 148.528 267.614 148.473 267.411 148.496L258.778 149.842C258.678 149.857 258.581 149.892 258.494 149.944C258.407 149.997 258.332 150.066 258.272 150.148C258.212 150.23 258.168 150.323 258.145 150.422C258.121 150.521 258.117 150.623 258.133 150.723C258.173 150.922 258.285 151.099 258.448 151.22C258.611 151.341 258.813 151.396 259.015 151.376Z" fill="white" stroke="#263238" stroke-miterlimit="10" stroke-linecap="round"/>
    <path d="M259.341 153.506L267.974 152.16C268.076 152.145 268.173 152.11 268.261 152.057C268.348 152.004 268.424 151.934 268.484 151.851C268.544 151.768 268.587 151.674 268.61 151.574C268.633 151.474 268.636 151.371 268.619 151.27C268.604 151.17 268.569 151.073 268.517 150.986C268.464 150.899 268.395 150.824 268.313 150.764C268.231 150.704 268.138 150.66 268.039 150.637C267.941 150.613 267.838 150.609 267.738 150.625L259.104 151.964C258.906 152.005 258.729 152.119 258.61 152.284C258.491 152.448 258.437 152.651 258.46 152.853C258.499 153.052 258.612 153.229 258.774 153.35C258.937 153.47 259.139 153.526 259.341 153.506Z" fill="white" stroke="#263238" stroke-miterlimit="10" stroke-linecap="round"/>
    <path d="M257.326 161.69C257.407 162.258 257.656 162.788 258.039 163.214C258.423 163.639 258.925 163.941 259.48 164.081C260.036 164.221 260.621 164.192 261.16 163.998C261.7 163.805 262.169 163.455 262.51 162.994C262.85 162.533 263.045 161.981 263.071 161.408C263.096 160.836 262.951 160.269 262.653 159.779C262.355 159.289 261.919 158.899 261.399 158.658C260.879 158.417 260.299 158.337 259.733 158.426C258.983 158.545 258.311 158.954 257.86 159.565C257.41 160.176 257.218 160.939 257.326 161.69Z" fill="#263238" stroke="#263238" stroke-miterlimit="10" stroke-linecap="round"/>
    <path d="M260.475 160.793L269.109 159.446C269.308 159.405 269.484 159.291 269.603 159.126C269.722 158.962 269.776 158.759 269.753 158.557C269.738 158.456 269.704 158.36 269.651 158.273C269.599 158.186 269.529 158.11 269.447 158.05C269.365 157.99 269.272 157.947 269.174 157.924C269.075 157.9 268.972 157.896 268.872 157.912L260.239 159.251C260.04 159.292 259.864 159.406 259.744 159.571C259.625 159.735 259.572 159.938 259.594 160.14C259.634 160.339 259.746 160.516 259.909 160.637C260.072 160.757 260.274 160.813 260.475 160.793Z" fill="white" stroke="#263238" stroke-miterlimit="10" stroke-linecap="round"/>
    <path d="M260.81 162.923L269.435 161.568C269.635 161.528 269.814 161.415 269.935 161.25C270.055 161.086 270.11 160.882 270.088 160.679C270.046 160.48 269.932 160.303 269.768 160.184C269.603 160.065 269.4 160.011 269.198 160.034L260.573 161.372C260.373 161.412 260.195 161.525 260.074 161.69C259.953 161.855 259.898 162.059 259.92 162.262C259.958 162.463 260.071 162.644 260.236 162.766C260.401 162.889 260.606 162.945 260.81 162.923Z" fill="white" stroke="#263238" stroke-miterlimit="10" stroke-linecap="round"/>
    <path d="M258.786 171.107C258.874 171.67 259.126 172.194 259.511 172.614C259.896 173.034 260.397 173.331 260.95 173.467C261.503 173.603 262.084 173.573 262.62 173.38C263.156 173.187 263.623 172.839 263.962 172.382C264.301 171.924 264.497 171.376 264.525 170.807C264.554 170.238 264.414 169.674 264.122 169.184C263.831 168.695 263.401 168.302 262.887 168.056C262.373 167.811 261.798 167.722 261.234 167.802C260.855 167.856 260.491 167.985 260.162 168.18C259.834 168.376 259.547 168.635 259.319 168.943C259.091 169.25 258.927 169.6 258.836 169.971C258.744 170.343 258.727 170.729 258.786 171.107Z" fill="#263238" stroke="#263238" stroke-miterlimit="10" stroke-linecap="round"/>
    <path d="M261.936 170.209L270.561 168.863C270.762 168.823 270.94 168.71 271.061 168.545C271.181 168.381 271.236 168.177 271.214 167.974C271.172 167.775 271.058 167.598 270.894 167.479C270.729 167.36 270.526 167.306 270.324 167.329L261.699 168.667C261.499 168.707 261.321 168.82 261.2 168.985C261.079 169.15 261.024 169.354 261.047 169.557C261.086 169.757 261.2 169.935 261.364 170.056C261.529 170.177 261.733 170.232 261.936 170.209Z" fill="white" stroke="#263238" stroke-miterlimit="10" stroke-linecap="round"/>
    <path d="M262.279 172.331L270.912 170.993C271.112 170.953 271.291 170.84 271.411 170.675C271.532 170.51 271.587 170.306 271.565 170.103C271.525 169.903 271.412 169.725 271.247 169.604C271.082 169.483 270.878 169.428 270.675 169.451L262.042 170.797C261.843 170.838 261.667 170.952 261.548 171.117C261.428 171.281 261.375 171.484 261.397 171.686C261.439 171.884 261.552 172.059 261.714 172.178C261.877 172.297 262.078 172.351 262.279 172.331Z" fill="white" stroke="#263238" stroke-miterlimit="10" stroke-linecap="round"/>
    <path d="M260.255 180.516C260.337 181.083 260.585 181.613 260.969 182.039C261.352 182.464 261.854 182.766 262.41 182.906C262.966 183.046 263.55 183.017 264.09 182.823C264.629 182.63 265.099 182.28 265.439 181.819C265.779 181.358 265.975 180.806 266 180.233C266.026 179.661 265.88 179.094 265.583 178.604C265.285 178.114 264.848 177.724 264.328 177.483C263.808 177.243 263.228 177.162 262.662 177.252C261.913 177.37 261.24 177.779 260.79 178.39C260.339 179.001 260.147 179.764 260.255 180.516Z" fill="#263238" stroke="#263238" stroke-miterlimit="10" stroke-linecap="round"/>
    <path d="M263.405 179.618L272.038 178.28C272.238 178.24 272.417 178.127 272.538 177.962C272.658 177.797 272.713 177.593 272.691 177.39C272.649 177.191 272.535 177.015 272.371 176.896C272.206 176.777 272.003 176.723 271.801 176.746L263.168 178.084C262.969 178.125 262.793 178.239 262.674 178.404C262.555 178.568 262.501 178.771 262.524 178.973C262.537 179.074 262.571 179.171 262.624 179.259C262.676 179.346 262.745 179.423 262.827 179.483C262.91 179.543 263.003 179.586 263.102 179.609C263.202 179.632 263.304 179.635 263.405 179.618Z" fill="white" stroke="#263238" stroke-miterlimit="10" stroke-linecap="round"/>
    <path d="M263.739 181.748L272.373 180.409C272.572 180.368 272.748 180.254 272.867 180.089C272.986 179.925 273.04 179.722 273.017 179.52C272.978 179.32 272.864 179.141 272.7 179.02C272.535 178.9 272.331 178.845 272.128 178.867L263.503 180.214C263.302 180.253 263.124 180.367 263.003 180.531C262.882 180.696 262.828 180.9 262.85 181.103C262.891 181.302 263.005 181.478 263.17 181.597C263.334 181.717 263.537 181.77 263.739 181.748Z" fill="white" stroke="#263238" stroke-miterlimit="10" stroke-linecap="round"/>
    <path d="M261.724 189.932C261.805 190.499 262.054 191.03 262.438 191.455C262.821 191.881 263.323 192.183 263.879 192.323C264.434 192.462 265.019 192.434 265.559 192.24C266.098 192.047 266.568 191.697 266.908 191.236C267.248 190.775 267.443 190.223 267.469 189.65C267.494 189.077 267.349 188.51 267.051 188.021C266.754 187.531 266.317 187.141 265.797 186.9C265.277 186.659 264.697 186.578 264.131 186.668C263.381 186.787 262.709 187.196 262.258 187.807C261.808 188.417 261.616 189.181 261.724 189.932Z" fill="#263238" stroke="#263238" stroke-miterlimit="10" stroke-linecap="round"/>
    <path d="M264.874 189.035L273.507 187.68C273.706 187.639 273.882 187.524 274.001 187.36C274.121 187.195 274.174 186.992 274.152 186.791C274.112 186.59 273.999 186.412 273.834 186.291C273.669 186.17 273.465 186.115 273.262 186.138L264.637 187.484C264.437 187.524 264.258 187.637 264.137 187.802C264.017 187.966 263.962 188.171 263.984 188.374C264.022 188.575 264.135 188.756 264.299 188.878C264.464 189.001 264.669 189.057 264.874 189.035Z" fill="white" stroke="#263238" stroke-miterlimit="10" stroke-linecap="round"/>
    <path d="M265.2 191.164L273.825 189.818C274.024 189.778 274.201 189.666 274.322 189.503C274.442 189.34 274.498 189.138 274.478 188.937C274.438 188.736 274.325 188.558 274.16 188.437C273.996 188.316 273.792 188.262 273.588 188.284L264.955 189.63C264.756 189.672 264.58 189.786 264.461 189.95C264.342 190.115 264.288 190.318 264.311 190.52C264.352 190.719 264.466 190.895 264.631 191.014C264.795 191.133 264.998 191.187 265.2 191.164Z" fill="white" stroke="#263238" stroke-miterlimit="10" stroke-linecap="round"/>
    <path d="M263.184 199.349C263.265 199.915 263.511 200.444 263.892 200.87C264.273 201.296 264.772 201.599 265.326 201.742C265.88 201.884 266.463 201.859 267.002 201.669C267.542 201.48 268.013 201.134 268.355 200.677C268.698 200.22 268.898 199.671 268.929 199.1C268.96 198.529 268.821 197.962 268.529 197.471C268.238 196.979 267.807 196.585 267.291 196.338C266.776 196.091 266.198 196.003 265.632 196.085C264.875 196.194 264.193 196.599 263.734 197.211C263.275 197.823 263.077 198.591 263.184 199.349Z" fill="#263238" stroke="#263238" stroke-miterlimit="10" stroke-linecap="round"/>
    <path d="M266.342 198.451L274.992 197.113C275.192 197.073 275.371 196.96 275.491 196.795C275.612 196.631 275.667 196.427 275.645 196.224C275.605 196.023 275.492 195.845 275.327 195.724C275.162 195.603 274.958 195.548 274.755 195.571L266.122 196.917C265.923 196.959 265.747 197.073 265.628 197.237C265.508 197.402 265.455 197.605 265.477 197.807C265.518 198.001 265.629 198.174 265.788 198.292C265.947 198.411 266.144 198.467 266.342 198.451Z" fill="white" stroke="#263238" stroke-miterlimit="10" stroke-linecap="round"/>
    <path d="M266.669 200.581L275.302 199.235C275.501 199.193 275.677 199.079 275.796 198.915C275.916 198.75 275.969 198.547 275.947 198.345C275.905 198.146 275.791 197.97 275.627 197.851C275.462 197.732 275.259 197.678 275.057 197.7L266.432 199.047C266.233 199.086 266.056 199.199 265.936 199.362C265.815 199.524 265.759 199.726 265.779 199.928C265.819 200.129 265.932 200.307 266.097 200.428C266.262 200.549 266.466 200.603 266.669 200.581Z" fill="white" stroke="#263238" stroke-miterlimit="10" stroke-linecap="round"/>
    <path d="M264.653 208.765C264.735 209.333 264.983 209.863 265.367 210.289C265.751 210.714 266.252 211.016 266.808 211.156C267.364 211.296 267.949 211.267 268.488 211.073C269.028 210.88 269.497 210.53 269.837 210.069C270.177 209.608 270.373 209.056 270.398 208.483C270.424 207.911 270.279 207.344 269.981 206.854C269.683 206.364 269.246 205.974 268.726 205.733C268.206 205.492 267.627 205.412 267.061 205.501C266.311 205.62 265.638 206.029 265.188 206.64C264.737 207.251 264.545 208.014 264.653 208.765Z" fill="#263238" stroke="#263238" stroke-miterlimit="10" stroke-linecap="round"/>
    <path d="M267.803 207.868L276.436 206.521C276.635 206.48 276.812 206.366 276.931 206.201C277.05 206.037 277.104 205.834 277.081 205.632C277.04 205.433 276.925 205.257 276.761 205.138C276.596 205.018 276.393 204.965 276.192 204.987L267.566 206.334C267.368 206.373 267.191 206.485 267.07 206.648C266.949 206.811 266.893 207.013 266.914 207.215C266.953 207.415 267.067 207.594 267.231 207.715C267.396 207.835 267.6 207.89 267.803 207.868Z" fill="white" stroke="#263238" stroke-miterlimit="10" stroke-linecap="round"/>
    <path d="M268.138 209.998L276.763 208.651C276.963 208.612 277.141 208.498 277.262 208.333C277.383 208.169 277.438 207.965 277.416 207.762C277.374 207.563 277.26 207.387 277.096 207.267C276.931 207.148 276.728 207.095 276.526 207.117L267.893 208.455C267.694 208.497 267.518 208.611 267.398 208.775C267.279 208.94 267.226 209.143 267.248 209.345C267.288 209.545 267.401 209.723 267.566 209.844C267.731 209.965 267.935 210.02 268.138 209.998Z" fill="white" stroke="#263238" stroke-miterlimit="10" stroke-linecap="round"/>
    <path d="M266.114 218.182C266.202 218.745 266.454 219.269 266.839 219.689C267.224 220.109 267.724 220.406 268.277 220.542C268.83 220.678 269.412 220.648 269.947 220.455C270.483 220.262 270.95 219.914 271.289 219.457C271.628 218.999 271.825 218.451 271.853 217.882C271.882 217.313 271.741 216.749 271.45 216.259C271.158 215.77 270.729 215.377 270.215 215.131C269.701 214.886 269.126 214.797 268.562 214.877C268.183 214.931 267.819 215.06 267.49 215.255C267.161 215.451 266.875 215.71 266.647 216.018C266.419 216.325 266.255 216.675 266.163 217.046C266.072 217.418 266.055 217.804 266.114 218.182Z" fill="#263238" stroke="#263238" stroke-miterlimit="10" stroke-linecap="round"/>
    <path d="M269.28 217.284L277.905 215.938C278.105 215.898 278.284 215.785 278.405 215.62C278.525 215.456 278.58 215.252 278.558 215.049C278.516 214.85 278.402 214.673 278.238 214.554C278.073 214.435 277.87 214.381 277.668 214.404L269.035 215.742C268.836 215.784 268.66 215.898 268.541 216.062C268.422 216.227 268.368 216.43 268.391 216.632C268.43 216.832 268.544 217.01 268.708 217.131C268.873 217.252 269.077 217.307 269.28 217.284Z" fill="white" stroke="#263238" stroke-miterlimit="10" stroke-linecap="round"/>
    <path d="M269.598 219.406L278.256 218.068C278.455 218.026 278.631 217.912 278.75 217.748C278.87 217.583 278.923 217.38 278.901 217.178C278.887 217.078 278.853 216.98 278.801 216.893C278.748 216.805 278.679 216.729 278.597 216.669C278.515 216.609 278.421 216.566 278.322 216.543C278.223 216.519 278.12 216.516 278.019 216.534L269.362 217.872C269.161 217.912 268.983 218.025 268.862 218.19C268.741 218.354 268.687 218.558 268.709 218.762C268.75 218.96 268.864 219.137 269.029 219.256C269.193 219.375 269.396 219.429 269.598 219.406Z" fill="white" stroke="#263238" stroke-miterlimit="10" stroke-linecap="round"/>
    <path d="M267.583 227.591C267.664 228.158 267.913 228.688 268.296 229.114C268.68 229.539 269.182 229.841 269.738 229.981C270.293 230.121 270.878 230.092 271.418 229.899C271.957 229.705 272.427 229.355 272.767 228.894C273.107 228.433 273.302 227.881 273.328 227.308C273.353 226.736 273.208 226.169 272.91 225.679C272.613 225.189 272.176 224.799 271.656 224.558C271.136 224.318 270.556 224.237 269.99 224.327C269.24 224.445 268.568 224.854 268.117 225.465C267.667 226.076 267.475 226.839 267.583 227.591Z" fill="#263238" stroke="#263238" stroke-miterlimit="10" stroke-linecap="round"/>
    <path d="M270.732 226.701L279.366 225.355C279.565 225.313 279.741 225.199 279.86 225.035C279.979 224.87 280.033 224.667 280.01 224.465C279.969 224.268 279.856 224.093 279.693 223.974C279.531 223.855 279.33 223.8 279.129 223.821L270.496 225.159C270.295 225.198 270.117 225.312 269.996 225.477C269.875 225.641 269.821 225.845 269.843 226.048C269.883 226.249 269.996 226.427 270.161 226.548C270.325 226.669 270.529 226.723 270.732 226.701Z" fill="white" stroke="#263238" stroke-miterlimit="10" stroke-linecap="round"/>
    <path d="M271.067 228.823L279.692 227.484C279.893 227.445 280.071 227.331 280.192 227.167C280.313 227.002 280.367 226.798 280.345 226.595C280.305 226.395 280.192 226.216 280.027 226.096C279.863 225.975 279.659 225.92 279.456 225.942L270.83 227.289C270.63 227.328 270.452 227.442 270.331 227.606C270.21 227.771 270.155 227.975 270.178 228.178C270.219 228.377 270.333 228.553 270.498 228.672C270.662 228.792 270.865 228.845 271.067 228.823Z" fill="white" stroke="#263238" stroke-miterlimit="10" stroke-linecap="round"/>
    <path d="M269.043 237.007C269.123 237.573 269.37 238.103 269.751 238.529C270.132 238.955 270.631 239.258 271.185 239.4C271.738 239.542 272.322 239.517 272.861 239.328C273.4 239.138 273.871 238.793 274.214 238.335C274.557 237.878 274.757 237.329 274.788 236.759C274.819 236.188 274.68 235.621 274.388 235.129C274.097 234.637 273.666 234.243 273.15 233.996C272.634 233.75 272.057 233.662 271.491 233.743C270.735 233.854 270.054 234.26 269.595 234.871C269.137 235.482 268.938 236.25 269.043 237.007Z" fill="#263238" stroke="#263238" stroke-miterlimit="10" stroke-linecap="round"/>
    <path d="M272.201 236.11L280.826 234.771C281.027 234.732 281.205 234.618 281.326 234.454C281.447 234.289 281.501 234.085 281.479 233.882C281.44 233.682 281.326 233.503 281.162 233.382C280.997 233.262 280.793 233.207 280.59 233.229L271.965 234.576C271.764 234.615 271.586 234.729 271.465 234.893C271.344 235.058 271.29 235.262 271.312 235.465C271.353 235.664 271.467 235.84 271.632 235.959C271.796 236.079 271.999 236.132 272.201 236.11Z" fill="white" stroke="#263238" stroke-miterlimit="10" stroke-linecap="round"/>
    <path d="M272.544 238.272L281.177 236.934C281.376 236.892 281.552 236.778 281.672 236.614C281.791 236.449 281.844 236.246 281.822 236.044C281.782 235.845 281.67 235.668 281.507 235.548C281.344 235.427 281.142 235.371 280.941 235.391L272.307 236.738C272.108 236.779 271.932 236.893 271.813 237.058C271.694 237.222 271.64 237.425 271.663 237.627C271.678 237.728 271.712 237.824 271.765 237.911C271.817 237.998 271.887 238.074 271.969 238.134C272.051 238.194 272.144 238.237 272.242 238.261C272.341 238.284 272.444 238.288 272.544 238.272Z" fill="white" stroke="#263238" stroke-miterlimit="10" stroke-linecap="round"/>
    <path d="M270.512 246.432C270.594 246.999 270.842 247.529 271.226 247.955C271.61 248.381 272.111 248.683 272.667 248.823C273.223 248.962 273.808 248.934 274.347 248.74C274.886 248.546 275.356 248.197 275.696 247.736C276.036 247.274 276.232 246.722 276.257 246.15C276.283 245.577 276.137 245.01 275.84 244.52C275.542 244.031 275.105 243.641 274.585 243.4C274.065 243.159 273.485 243.078 272.919 243.168C272.17 243.287 271.497 243.696 271.047 244.307C270.596 244.917 270.404 245.681 270.512 246.432Z" fill="#263238" stroke="#263238" stroke-miterlimit="10" stroke-linecap="round"/>
    <path d="M273.662 245.526L282.336 244.188C282.437 244.173 282.535 244.138 282.622 244.085C282.71 244.032 282.786 243.962 282.846 243.879C282.906 243.796 282.949 243.702 282.972 243.602C282.995 243.503 282.998 243.399 282.981 243.299C282.941 243.1 282.829 242.923 282.666 242.802C282.503 242.681 282.301 242.626 282.099 242.646L273.425 243.984C273.324 243.999 273.227 244.034 273.139 244.087C273.052 244.14 272.976 244.21 272.915 244.293C272.855 244.376 272.812 244.47 272.789 244.57C272.766 244.669 272.763 244.773 272.781 244.873C272.795 244.975 272.829 245.072 272.881 245.16C272.933 245.248 273.002 245.324 273.084 245.385C273.166 245.446 273.259 245.49 273.359 245.514C273.458 245.538 273.561 245.542 273.662 245.526Z" fill="white" stroke="#263238" stroke-miterlimit="10" stroke-linecap="round"/>
    <path d="M273.996 247.656L282.622 246.31C282.723 246.296 282.82 246.262 282.908 246.21C282.996 246.157 283.073 246.088 283.133 246.006C283.194 245.924 283.238 245.831 283.262 245.731C283.286 245.632 283.291 245.529 283.274 245.428C283.235 245.228 283.121 245.05 282.957 244.929C282.792 244.808 282.588 244.753 282.385 244.775L273.76 246.122C273.561 246.161 273.384 246.274 273.263 246.437C273.143 246.599 273.087 246.801 273.107 247.003C273.147 247.204 273.26 247.382 273.425 247.503C273.589 247.624 273.793 247.678 273.996 247.656Z" fill="white" stroke="#263238" stroke-miterlimit="10" stroke-linecap="round"/>
    <path d="M271.973 255.84C272.053 256.406 272.299 256.936 272.68 257.362C273.062 257.788 273.561 258.091 274.114 258.233C274.668 258.376 275.251 258.35 275.791 258.161C276.33 257.971 276.801 257.626 277.144 257.169C277.487 256.711 277.686 256.163 277.717 255.592C277.748 255.021 277.609 254.454 277.318 253.962C277.026 253.471 276.595 253.076 276.08 252.83C275.564 252.583 274.987 252.495 274.421 252.576C273.665 252.688 272.983 253.093 272.525 253.704C272.066 254.316 271.868 255.083 271.973 255.84Z" fill="#263238" stroke="#263238" stroke-miterlimit="10" stroke-linecap="round"/>
    <path d="M275.131 254.943L283.756 253.596C283.955 253.557 284.132 253.445 284.252 253.282C284.373 253.119 284.429 252.917 284.409 252.715C284.369 252.515 284.256 252.337 284.091 252.216C283.926 252.095 283.722 252.04 283.519 252.062L274.894 253.409C274.695 253.448 274.518 253.56 274.398 253.723C274.277 253.886 274.221 254.088 274.241 254.29C274.281 254.49 274.394 254.669 274.559 254.79C274.724 254.91 274.928 254.965 275.131 254.943Z" fill="white" stroke="#263238" stroke-miterlimit="10" stroke-linecap="round"/>
    <path d="M275.465 257.04L284.09 255.694C284.291 255.654 284.469 255.541 284.59 255.376C284.711 255.211 284.765 255.007 284.743 254.804C284.702 254.605 284.588 254.429 284.423 254.31C284.259 254.191 284.056 254.137 283.854 254.16L275.22 255.498C275.022 255.539 274.845 255.653 274.726 255.818C274.607 255.982 274.553 256.185 274.576 256.387C274.615 256.588 274.729 256.766 274.893 256.887C275.058 257.008 275.262 257.062 275.465 257.04Z" fill="white" stroke="#263238" stroke-miterlimit="10" stroke-linecap="round"/>
    <path d="M273.442 265.257C273.523 265.824 273.772 266.355 274.155 266.78C274.539 267.206 275.041 267.508 275.596 267.648C276.152 267.787 276.737 267.759 277.276 267.565C277.816 267.372 278.286 267.022 278.626 266.561C278.966 266.099 279.161 265.547 279.187 264.975C279.212 264.402 279.067 263.835 278.769 263.346C278.471 262.856 278.035 262.466 277.515 262.225C276.995 261.984 276.415 261.903 275.849 261.993C275.099 262.112 274.427 262.521 273.976 263.132C273.526 263.742 273.334 264.506 273.442 265.257Z" fill="#263238" stroke="#263238" stroke-miterlimit="10" stroke-linecap="round"/>
    <path d="M276.624 264.384L285.249 263.038C285.449 262.998 285.628 262.885 285.749 262.72C285.869 262.555 285.924 262.351 285.902 262.148C285.86 261.949 285.746 261.773 285.582 261.654C285.417 261.535 285.214 261.481 285.012 261.504L276.379 262.842C276.18 262.883 276.004 262.997 275.885 263.162C275.766 263.326 275.712 263.529 275.735 263.731C275.774 263.932 275.888 264.11 276.052 264.231C276.217 264.352 276.421 264.406 276.624 264.384Z" fill="white" stroke="#263238" stroke-miterlimit="10" stroke-linecap="round"/>
    <path d="M276.926 266.489L285.6 265.143C285.799 265.101 285.975 264.987 286.094 264.823C286.214 264.658 286.267 264.455 286.245 264.253C286.203 264.055 286.089 263.878 285.925 263.759C285.76 263.64 285.557 263.586 285.355 263.609L276.73 264.947C276.53 264.987 276.351 265.1 276.231 265.265C276.11 265.429 276.055 265.633 276.077 265.836C276.116 266.029 276.224 266.202 276.38 266.322C276.536 266.441 276.73 266.501 276.926 266.489Z" fill="white" stroke="#263238" stroke-miterlimit="10" stroke-linecap="round"/>
    <path d="M274.91 274.674C274.998 275.237 275.25 275.761 275.635 276.181C276.02 276.601 276.521 276.897 277.074 277.034C277.627 277.17 278.208 277.14 278.744 276.946C279.28 276.753 279.747 276.406 280.086 275.948C280.425 275.491 280.621 274.943 280.65 274.374C280.678 273.805 280.538 273.24 280.246 272.751C279.955 272.261 279.525 271.869 279.011 271.623C278.497 271.377 277.922 271.289 277.358 271.369C276.98 271.423 276.615 271.551 276.286 271.747C275.958 271.943 275.671 272.202 275.443 272.509C275.216 272.817 275.051 273.167 274.96 273.538C274.868 273.91 274.851 274.296 274.91 274.674Z" fill="#263238" stroke="#263238" stroke-miterlimit="10" stroke-linecap="round"/>
    <path d="M278.06 273.776L286.693 272.43C286.892 272.388 287.069 272.274 287.188 272.11C287.307 271.945 287.361 271.742 287.338 271.54C287.293 271.338 287.172 271.161 287.001 271.044C286.83 270.927 286.621 270.88 286.416 270.912L277.791 272.25C277.591 272.29 277.412 272.403 277.291 272.568C277.171 272.733 277.116 272.937 277.138 273.14C277.182 273.343 277.301 273.523 277.473 273.641C277.644 273.76 277.854 273.808 278.06 273.776Z" fill="white" stroke="#263238" stroke-miterlimit="10" stroke-linecap="round"/>
    <path d="M278.395 275.898L287.02 274.56C287.22 274.52 287.398 274.407 287.519 274.242C287.64 274.077 287.695 273.873 287.673 273.67C287.633 273.47 287.52 273.292 287.355 273.171C287.19 273.05 286.986 272.995 286.783 273.017L278.15 274.364C277.951 274.405 277.775 274.519 277.656 274.684C277.536 274.848 277.483 275.051 277.505 275.253C277.547 275.452 277.661 275.628 277.825 275.748C277.99 275.867 278.193 275.92 278.395 275.898Z" fill="white" stroke="#263238" stroke-miterlimit="10" stroke-linecap="round"/>
    <path d="M276.371 284.082C276.453 284.65 276.701 285.18 277.085 285.605C277.468 286.031 277.97 286.333 278.526 286.473C279.082 286.613 279.666 286.584 280.206 286.39C280.745 286.197 281.215 285.847 281.555 285.386C281.895 284.925 282.091 284.373 282.116 283.8C282.142 283.228 281.996 282.66 281.699 282.171C281.401 281.681 280.964 281.291 280.444 281.05C279.924 280.809 279.344 280.729 278.778 280.818C278.029 280.937 277.356 281.346 276.906 281.957C276.455 282.568 276.263 283.331 276.371 284.082Z" fill="#263238" stroke="#263238" stroke-miterlimit="10" stroke-linecap="round"/>
    <path d="M279.529 283.152L288.154 281.814C288.354 281.774 288.533 281.661 288.654 281.496C288.774 281.331 288.829 281.127 288.807 280.924C288.792 280.823 288.757 280.726 288.704 280.638C288.651 280.551 288.581 280.475 288.498 280.415C288.415 280.354 288.321 280.312 288.221 280.288C288.122 280.265 288.018 280.262 287.917 280.28L279.284 281.618C279.085 281.659 278.909 281.774 278.79 281.938C278.671 282.102 278.617 282.306 278.64 282.507C278.654 282.609 278.689 282.706 278.742 282.794C278.795 282.881 278.865 282.957 278.948 283.017C279.031 283.077 279.125 283.12 279.225 283.143C279.325 283.167 279.428 283.169 279.529 283.152Z" fill="white" stroke="#263238" stroke-miterlimit="10" stroke-linecap="round"/>
    <path d="M279.888 285.314L288.489 283.968C288.688 283.927 288.864 283.813 288.983 283.648C289.102 283.484 289.156 283.28 289.133 283.079C289.094 282.878 288.98 282.7 288.816 282.579C288.651 282.458 288.447 282.403 288.244 282.426L279.619 283.772C279.418 283.812 279.24 283.925 279.119 284.09C278.998 284.255 278.944 284.459 278.966 284.662C279.006 284.868 279.124 285.052 279.296 285.173C279.468 285.295 279.68 285.346 279.888 285.314Z" fill="white" stroke="#263238" stroke-miterlimit="10" stroke-linecap="round"/>
    <path d="M277.84 293.499C277.921 294.066 278.17 294.596 278.553 295.022C278.937 295.448 279.439 295.75 279.995 295.889C280.55 296.029 281.135 296 281.675 295.807C282.214 295.613 282.684 295.264 283.024 294.803C283.364 294.341 283.559 293.789 283.585 293.217C283.61 292.644 283.465 292.077 283.167 291.587C282.87 291.098 282.433 290.708 281.913 290.467C281.393 290.226 280.813 290.145 280.247 290.235C279.497 290.354 278.825 290.763 278.374 291.373C277.924 291.984 277.732 292.748 277.84 293.499Z" fill="#263238" stroke="#263238" stroke-miterlimit="10" stroke-linecap="round"/>
    <path d="M280.99 292.601L289.623 291.263C289.822 291.222 289.998 291.108 290.117 290.943C290.237 290.779 290.29 290.576 290.268 290.374C290.228 290.173 290.115 289.995 289.95 289.874C289.785 289.753 289.581 289.699 289.378 289.721L280.753 291.067C280.553 291.107 280.374 291.22 280.253 291.385C280.133 291.55 280.078 291.754 280.1 291.957C280.142 292.156 280.256 292.332 280.42 292.451C280.585 292.57 280.788 292.624 280.99 292.601Z" fill="white" stroke="#263238" stroke-miterlimit="10" stroke-linecap="round"/>
    <path d="M281.324 294.731L289.949 293.385C290.148 293.345 290.325 293.233 290.446 293.07C290.566 292.907 290.622 292.705 290.602 292.503C290.562 292.303 290.449 292.125 290.284 292.004C290.12 291.883 289.916 291.828 289.713 291.851L281.079 293.197C280.88 293.238 280.704 293.352 280.585 293.517C280.466 293.681 280.412 293.885 280.435 294.086C280.476 294.285 280.59 294.462 280.755 294.581C280.919 294.7 281.122 294.754 281.324 294.731Z" fill="white" stroke="#263238" stroke-miterlimit="10" stroke-linecap="round"/>
    <path d="M279.3 302.915C279.381 303.481 279.627 304.011 280.008 304.437C280.389 304.863 280.888 305.166 281.442 305.308C281.996 305.451 282.579 305.425 283.118 305.236C283.658 305.046 284.129 304.701 284.471 304.244C284.814 303.786 285.014 303.238 285.045 302.667C285.076 302.096 284.937 301.529 284.645 301.037C284.354 300.546 283.923 300.151 283.407 299.905C282.892 299.658 282.314 299.57 281.748 299.651C280.991 299.761 280.309 300.166 279.85 300.777C279.391 301.389 279.193 302.158 279.3 302.915Z" fill="#263238" stroke="#263238" stroke-miterlimit="10" stroke-linecap="round"/>
    <path d="M282.458 302.018L291.084 300.68C291.284 300.64 291.462 300.527 291.583 300.362C291.704 300.197 291.759 299.993 291.736 299.79C291.697 299.59 291.583 299.412 291.419 299.291C291.254 299.17 291.05 299.115 290.847 299.137L282.214 300.484C282.015 300.525 281.838 300.639 281.719 300.804C281.6 300.968 281.546 301.171 281.569 301.373C281.61 301.572 281.724 301.748 281.889 301.868C282.053 301.987 282.256 302.04 282.458 302.018Z" fill="white" stroke="#263238" stroke-miterlimit="10" stroke-linecap="round"/>
    <path d="M282.785 304.148L291.418 302.801C291.617 302.76 291.793 302.646 291.912 302.481C292.032 302.317 292.085 302.114 292.063 301.912C292.048 301.811 292.013 301.715 291.961 301.628C291.908 301.541 291.839 301.465 291.757 301.405C291.675 301.345 291.582 301.302 291.483 301.279C291.384 301.255 291.282 301.251 291.181 301.267L282.548 302.614C282.447 302.627 282.35 302.661 282.263 302.714C282.175 302.766 282.099 302.835 282.039 302.917C281.979 303 281.936 303.093 281.912 303.192C281.889 303.292 281.886 303.394 281.904 303.495C281.943 303.694 282.055 303.871 282.218 303.991C282.381 304.112 282.583 304.168 282.785 304.148Z" fill="white" stroke="#263238" stroke-miterlimit="10" stroke-linecap="round"/>
    <g opacity="0.3">
        <path d="M155.921 143.216L158.067 142.89" stroke="black" stroke-miterlimit="10" stroke-linecap="round"/>
        <path d="M160.213 142.555L162.36 142.221" stroke="black" stroke-miterlimit="10" stroke-linecap="round"/>
        <path d="M134.95 149.508L137.088 149.173" stroke="black" stroke-miterlimit="10" stroke-linecap="round"/>
        <path d="M139.234 148.838L141.38 148.504" stroke="black" stroke-miterlimit="10" stroke-linecap="round"/>
        <path d="M143.526 148.177L145.664 147.843" stroke="black" stroke-miterlimit="10" stroke-linecap="round"/>
        <path d="M147.81 147.508L149.956 147.174" stroke="black" stroke-miterlimit="10" stroke-linecap="round"/>
        <path d="M152.094 146.839L154.24 146.505" stroke="black" stroke-miterlimit="10" stroke-linecap="round"/>
        <path d="M156.386 146.17L158.524 145.836" stroke="black" stroke-miterlimit="10" stroke-linecap="round"/>
        <path d="M160.67 145.501L162.816 145.175" stroke="black" stroke-miterlimit="10" stroke-linecap="round"/>
        <path d="M135.407 152.461L137.553 152.127" stroke="black" stroke-miterlimit="10" stroke-linecap="round"/>
        <path d="M139.691 151.792L141.837 151.458" stroke="black" stroke-miterlimit="10" stroke-linecap="round"/>
        <path d="M143.983 151.123L146.129 150.797" stroke="black" stroke-miterlimit="10" stroke-linecap="round"/>
        <path d="M148.267 150.462L150.413 150.128" stroke="black" stroke-miterlimit="10" stroke-linecap="round"/>
        <path d="M152.559 149.793L154.697 149.459" stroke="black" stroke-miterlimit="10" stroke-linecap="round"/>
        <path d="M156.843 149.124L158.989 148.789" stroke="black" stroke-miterlimit="10" stroke-linecap="round"/>
        <path d="M161.127 148.455L163.273 148.12" stroke="black" stroke-miterlimit="10" stroke-linecap="round"/>
        <path d="M135.864 155.415L138.01 155.081" stroke="black" stroke-miterlimit="10" stroke-linecap="round"/>
        <path d="M140.156 154.746L142.294 154.412" stroke="black" stroke-miterlimit="10" stroke-linecap="round"/>
        <path d="M144.44 154.077L146.586 153.743" stroke="black" stroke-miterlimit="10" stroke-linecap="round"/>
        <path d="M148.732 153.416L150.87 153.082" stroke="black" stroke-miterlimit="10" stroke-linecap="round"/>
        <path d="M153.016 152.747L155.162 152.412" stroke="black" stroke-miterlimit="10" stroke-linecap="round"/>
        <path d="M157.3 152.078L159.446 151.743" stroke="black" stroke-miterlimit="10" stroke-linecap="round"/>
        <path d="M161.592 151.409L163.73 151.074" stroke="black" stroke-miterlimit="10" stroke-linecap="round"/>
        <path d="M136.329 158.369L138.467 158.035" stroke="black" stroke-miterlimit="10" stroke-linecap="round"/>
        <path d="M140.613 157.7L142.759 157.366" stroke="black" stroke-miterlimit="10" stroke-linecap="round"/>
        <path d="M144.897 157.031L147.043 156.696" stroke="black" stroke-miterlimit="10" stroke-linecap="round"/>
        <path d="M149.189 156.362L151.335 156.036" stroke="black" stroke-miterlimit="10" stroke-linecap="round"/>
        <path d="M153.473 155.701L155.619 155.366" stroke="black" stroke-miterlimit="10" stroke-linecap="round"/>
        <path d="M157.765 155.032L159.903 154.697" stroke="black" stroke-miterlimit="10" stroke-linecap="round"/>
        <path d="M162.049 154.363L164.196 154.028" stroke="black" stroke-miterlimit="10" stroke-linecap="round"/>
        <path d="M133.881 142.678L136.027 142.343" stroke="black" stroke-miterlimit="10" stroke-linecap="round"/>
        <path d="M138.173 142.008L140.319 141.682" stroke="black" stroke-miterlimit="10" stroke-linecap="round"/>
        <path d="M142.457 141.348L144.603 141.013" stroke="black" stroke-miterlimit="10" stroke-linecap="round"/>
        <path d="M146.749 140.678L148.887 140.344" stroke="black" stroke-miterlimit="10" stroke-linecap="round"/>
        <path d="M151.033 140.009L153.18 139.675" stroke="black" stroke-miterlimit="10" stroke-linecap="round"/>
        <path d="M155.326 139.34L157.463 139.014" stroke="black" stroke-miterlimit="10" stroke-linecap="round"/>
        <path d="M159.61 138.679L161.756 138.345" stroke="black" stroke-miterlimit="10" stroke-linecap="round"/>
        <path d="M162.196 139.977L133.963 144.367" stroke="black" stroke-miterlimit="10" stroke-linecap="round"/>
        <path d="M141.796 137.667L152.69 135.97" stroke="black" stroke-miterlimit="10" stroke-linecap="round"/>
        <path d="M128.267 168.12L248.407 149.426" stroke="black" stroke-miterlimit="10" stroke-linecap="round"/>
        <path d="M129.777 177.798L249.908 159.104" stroke="black" stroke-miterlimit="10" stroke-linecap="round"/>
        <path d="M131.278 187.468L251.418 168.773" stroke="black" stroke-miterlimit="10" stroke-linecap="round"/>
        <path d="M132.788 197.146L252.919 178.451" stroke="black" stroke-miterlimit="10" stroke-linecap="round"/>
        <path d="M134.289 206.823L254.429 188.129" stroke="black" stroke-miterlimit="10" stroke-linecap="round"/>
        <path d="M135.799 216.501L255.93 197.798" stroke="black" stroke-miterlimit="10" stroke-linecap="round"/>
        <path d="M137.3 226.171L257.44 207.476" stroke="black" stroke-miterlimit="10" stroke-linecap="round"/>
        <path d="M138.81 235.848L258.941 217.154" stroke="black" stroke-miterlimit="10" stroke-linecap="round"/>
        <path d="M140.311 245.526L260.451 226.832" stroke="black" stroke-miterlimit="10" stroke-linecap="round"/>
        <path d="M141.821 255.204L261.952 236.501" stroke="black" stroke-miterlimit="10" stroke-linecap="round"/>
        <path d="M143.322 264.874L263.462 246.179" stroke="black" stroke-miterlimit="10" stroke-linecap="round"/>
        <path d="M144.832 274.551L264.972 255.857" stroke="black" stroke-miterlimit="10" stroke-linecap="round"/>
        <path d="M146.333 284.229L266.473 265.535" stroke="black" stroke-miterlimit="10" stroke-linecap="round"/>
        <path d="M149.916 307.208L270.047 288.513" stroke="black" stroke-miterlimit="10" stroke-linecap="round"/>
        <path d="M151.107 314.87L271.238 296.167" stroke="black" stroke-miterlimit="10" stroke-linecap="round"/>
        <path d="M152.298 322.524L272.43 303.829" stroke="black" stroke-miterlimit="10" stroke-linecap="round"/>
    </g>
    <path d="M145.403 177.431C145.403 177.431 135.154 188.52 141.078 186.774C147.002 185.028 155.105 173.441 153.384 178.255C151.662 183.07 151.752 186.35 154.534 183.029C157.317 179.708 158.875 179.047 158.312 180.785C157.749 182.523 160.05 181.34 160.05 181.34C160.05 181.34 165.762 177.978 165.167 179.708C164.571 181.438 164.212 181.511 165.828 181.258L171.066 180.442C171.066 180.442 170.724 180.915 175.562 180.156C180.401 179.398 182.286 178.288 184.71 177.912" stroke="#263238" stroke-miterlimit="10" stroke-linecap="round"/>
    <path d="M140.752 192.576C140.752 192.576 148.651 187.631 149.646 188.716C150.642 189.802 149.279 191.662 152.845 190.699C156.411 189.736 159.659 186.75 159.912 188.357C160.164 189.965 162.457 188.79 162.457 188.79L164.473 188.472C164.473 188.472 168.161 188.316 169.312 187.721C170.462 187.125 171.654 181.576 170.772 189.149C169.891 196.721 166.799 190.177 174.151 186.97C181.503 183.763 182.866 187.264 182.866 187.264C183.679 187.08 184.47 186.806 185.224 186.448C186.766 185.787 188.129 183.926 189.589 185.354C191.05 186.782 193.669 182.245 193.669 182.245C194.689 182.436 195.694 182.692 196.68 183.012C197.625 183.343 198.629 183.468 199.626 183.38C200.858 183.427 202.092 183.372 203.315 183.216C204.947 182.964 206.293 181.103 207.623 181.723C208.953 182.343 210.969 176.656 209.957 183.42C208.945 190.185 202.401 193.27 205.061 189.132C207.409 185.519 210.425 182.387 213.947 179.904C216.925 177.79 217.79 178.068 218.443 179.618C219.096 181.168 219.904 181.038 221.454 180.385C223.005 179.732 221.675 179.112 223.005 179.732C223.447 179.984 223.935 180.146 224.441 180.209C224.946 180.272 225.459 180.235 225.95 180.099C227.166 179.912 221.495 183.274 227.166 179.912C232.837 176.55 234.861 163.02 231.891 170.503C228.921 177.986 230.047 179.879 234.021 178.843" stroke="#263238" stroke-miterlimit="10" stroke-linecap="round"/>
    <path d="M141.609 206.097C141.609 206.097 151.303 196.746 150.707 195.595C150.111 194.445 147.019 195.758 144.758 199.822C142.498 203.886 144.089 206.122 150.168 202.703C156.248 199.284 147.402 203.519 153.645 203.812C159.887 204.106 161.731 200.075 161.919 201.283C162.107 202.49 160.026 202.401 164.93 202.099C169.834 201.797 167.435 199.651 172.462 200.1C177.488 200.548 179.724 198.965 179.724 198.965L182.947 198.468C182.947 198.468 176.419 199.063 184.897 197.749C193.376 196.436 197.097 185.942 193.017 191.532C188.937 197.121 190.854 198.876 195.04 196.583L199.226 194.281C199.226 194.281 204.514 188.504 202.017 196.321C199.52 204.139 196.566 198.41 205.86 194.485C215.155 190.56 214.918 194.314 218.019 193.008C221.12 191.703 220.614 188.472 222.67 191.042C224.726 193.612 224.596 192.813 227.819 192.307C231.042 191.801 230.177 191.491 233.001 191.091L239.088 190.128" stroke="#263238" stroke-miterlimit="10" stroke-linecap="round"/>
    <path d="M143.241 235.163C143.241 235.163 149.997 230.806 151.074 224.441C152.151 218.076 146.823 226.342 147.402 235.334C147.982 244.327 144.816 232.021 154.24 228.904C163.665 225.787 153.424 231.516 154.469 232.984C155.513 234.453 163.241 228.317 163.151 230.389C163.061 232.462 164.783 233.025 169.532 228.986C174.281 224.947 166.554 225.722 166.187 228.684C165.819 231.646 168.112 230.447 173.971 228.292C179.83 226.138 174.094 229.108 177.725 228.537C181.356 227.966 189.345 220.948 187.77 224.082C186.195 227.215 187.713 229.051 189.475 227.125C191.238 225.2 194.991 220.067 195.301 222.083C195.488 223.273 195.23 224.49 194.575 225.502" stroke="#263238" stroke-miterlimit="10" stroke-linecap="round"/>
    <path opacity="0.3" d="M105.37 158.377C105.213 158.211 105.043 158.055 104.864 157.912C104.346 157.509 103.779 157.174 103.175 156.917L102.816 156.786H102.726C99.5112 155.791 88.5197 155.317 84.8313 155.154C83.9113 155.122 83.0075 155.402 82.2668 155.949C81.5261 156.496 80.992 157.277 80.7513 158.165V158.255C79.968 161.25 68.7888 235.13 68.7888 235.13C68.7888 235.13 68.7072 236.762 68.5929 239.316C68.544 240.434 68.495 241.764 68.4297 243.111C68.4297 243.462 68.4297 243.813 68.4297 244.172C68.4297 244.89 68.3726 245.624 68.34 246.367C68.2339 248.986 68.136 251.744 68.0626 254.266C68.0054 256.061 67.9646 257.742 67.9402 259.162C67.9402 260.296 67.9402 261.259 67.9402 261.993C67.9307 263.703 68.0261 265.411 68.2257 267.109C68.544 269.215 69.2784 270.186 71.0899 270.504C71.5387 270.586 72.1915 270.684 72.983 270.781L73.4726 270.839L75.7166 271.083L76.3368 271.14L78.2544 271.296L79.5763 271.377L80.9064 271.442C81.7795 271.483 82.6445 271.5 83.4686 271.5C84.6688 271.517 85.8686 271.449 87.059 271.296H87.1651L87.467 271.238L87.8016 271.157H87.8669L88.2014 271.051L88.7645 270.839L89.2786 270.626C89.971 270.349 90.6306 269.996 91.2451 269.574C91.4437 269.432 91.6344 269.279 91.8163 269.117C91.9904 268.964 92.1536 268.801 92.3059 268.627L92.5181 268.374C92.8154 268.001 93.088 267.608 93.3341 267.199C93.3747 267.135 93.4076 267.067 93.432 266.995L93.4809 266.873L93.5626 266.661C93.5806 266.597 93.6024 266.534 93.6278 266.473C93.6278 266.383 93.6768 266.31 93.7094 266.212L93.7829 265.983C93.7829 265.877 93.84 265.779 93.8726 265.665C93.9053 265.551 93.9297 265.486 93.9542 265.396C93.9787 265.306 94.0195 265.151 94.0603 265.02C94.1011 264.89 94.1174 264.8 94.1501 264.694C94.1827 264.588 94.2154 264.433 94.2562 264.286C94.297 264.139 94.3214 264.041 94.3541 263.919C94.3867 263.796 94.4275 263.625 94.4683 263.462L94.5662 263.078L94.6886 262.581C94.6886 262.442 94.7621 262.287 94.8029 262.14L94.9253 261.618C94.9661 261.471 94.9987 261.308 95.0395 261.153C95.0803 260.998 95.1293 260.785 95.1701 260.598L95.2925 260.1C95.2925 259.912 95.3822 259.725 95.423 259.529C95.4638 259.333 95.5046 259.17 95.5536 258.99C95.6025 258.811 95.6434 258.599 95.6842 258.395C95.6879 258.338 95.6879 258.28 95.6842 258.223C95.6842 258.109 95.7413 257.995 95.7658 257.88C95.7902 257.766 95.8637 257.44 95.9208 257.211C95.9779 256.983 95.9942 256.869 96.035 256.689C96.0758 256.51 96.1329 256.24 96.1901 256.012L96.3125 255.473L96.4593 254.796C96.4593 254.6 96.5491 254.396 96.5899 254.2L96.7368 253.556C96.7368 253.352 96.8265 253.14 96.8673 252.936L97.0142 252.291C97.0142 252.193 97.0142 252.095 97.0713 251.997C97.1285 251.899 97.1285 251.769 97.1529 251.654C97.1774 251.54 97.2427 251.23 97.2835 251.018C97.3243 250.806 97.3733 250.602 97.4222 250.39C97.4712 250.177 97.512 249.949 97.5609 249.737C97.6099 249.525 97.6507 249.312 97.6997 249.1C97.7486 248.888 97.7813 248.692 97.8302 248.488C97.8792 248.284 97.92 248.04 97.9689 247.811L98.0913 247.224C98.1403 247.011 98.1811 246.807 98.2219 246.603C98.2627 246.399 98.3117 246.171 98.3606 245.959L98.483 245.347C98.483 245.159 98.5646 244.971 98.5973 244.784C98.6299 244.596 98.6544 244.506 98.687 244.368L98.736 244.131C98.736 243.951 98.8094 243.772 98.8421 243.592C98.8747 243.413 98.9318 243.184 98.9726 242.98C99.0134 242.776 99.0379 242.629 99.0787 242.458L99.2011 241.83C99.2011 241.691 99.2582 241.544 99.2827 241.405L99.3806 240.932C99.3806 240.875 99.3806 240.818 99.3806 240.753C99.3806 240.687 99.4377 240.483 99.4622 240.345L99.5846 239.749L99.6581 239.341C99.6989 239.153 99.7315 238.966 99.7642 238.794L99.8376 238.435L99.9355 237.888C99.9355 237.791 99.9355 237.701 99.9926 237.611L100.091 237.081L100.14 236.82C100.14 236.656 100.197 236.501 100.221 236.354C100.221 236.159 100.286 235.963 100.319 235.791C100.458 234.975 100.645 233.172 100.874 230.651C100.964 229.704 101.053 228.66 101.151 227.517C101.502 223.356 101.91 218.003 102.343 212.127C102.343 211.597 102.416 211.058 102.457 210.495C104.089 188.284 105.9 159.781 105.9 159.781C105.911 159.523 105.869 159.266 105.778 159.025C105.687 158.784 105.548 158.564 105.37 158.377Z" fill="black"/>
    <path d="M64.9781 234.314C64.9781 234.314 63.9744 255.335 64.0887 261.161C64.2029 266.987 64.3416 269.166 67.2303 269.68C70.1189 270.194 81.2655 271.312 84.3663 270.186C87.4671 269.06 88.4463 268.064 89.4907 266.342C90.5352 264.621 95.4475 241.397 96.5573 234.877C97.6671 228.358 102.147 158.892 102.147 158.892C102.147 158.892 102.318 157.415 99.3399 156.101C96.8919 154.999 84.8803 154.469 80.9962 154.338C80.0704 154.296 79.1579 154.571 78.4089 155.117C77.6599 155.663 77.1191 156.447 76.8754 157.341C76.8754 157.341 76.8754 157.406 76.8754 157.431C76.1328 160.426 64.9781 234.314 64.9781 234.314Z" fill="#3B5775"/>
    <mask id="mask0_10_605" style="mask-type:luminance" maskUnits="userSpaceOnUse" x="64" y="154" width="39" height="117">
        <path d="M64.9781 234.314C64.9781 234.314 63.9744 255.335 64.0887 261.161C64.2029 266.987 64.3416 269.166 67.2303 269.68C70.1189 270.194 81.2655 271.312 84.3663 270.186C87.4671 269.06 88.4463 268.064 89.4907 266.342C90.5352 264.621 95.4475 241.397 96.5573 234.877C97.6671 228.358 102.147 158.892 102.147 158.892C102.147 158.892 102.318 157.415 99.3399 156.101C96.8919 154.999 84.8803 154.469 80.9962 154.338C80.0704 154.296 79.1579 154.571 78.4089 155.117C77.6599 155.663 77.1191 156.447 76.8754 157.341C76.8754 157.341 76.8754 157.406 76.8754 157.431C76.1328 160.426 64.9781 234.314 64.9781 234.314Z" fill="white"/>
    </mask>
    <g mask="url(#mask0_10_605)">
        <path opacity="0.5" d="M82.718 270.529C83.2732 270.477 83.8207 270.362 84.35 270.186C87.4834 269.06 88.43 268.064 89.4744 266.342C90.5189 264.621 95.4312 241.397 96.541 234.877C97.6508 228.358 102.131 158.892 102.131 158.892C102.131 158.892 102.302 157.415 99.3236 156.101C99.0358 155.98 98.7382 155.885 98.4341 155.815C97.7895 171.931 95.6108 191.066 91.7837 213.8C88.2096 235.31 84.1541 261.308 82.718 270.529Z" fill="black"/>
    </g>
    <path d="M64.9781 234.314C64.9781 234.314 63.9744 255.335 64.0887 261.161C64.2029 266.987 64.3416 269.166 67.2303 269.68C70.1189 270.194 81.2655 271.312 84.3663 270.186C87.4671 269.06 88.4463 268.064 89.4907 266.342C90.5352 264.621 95.4475 241.397 96.5573 234.877C97.6671 228.358 102.147 158.892 102.147 158.892C102.147 158.892 102.318 157.415 99.3399 156.101C96.8919 154.999 84.8803 154.469 80.9962 154.338C80.0704 154.296 79.1579 154.571 78.4089 155.117C77.6599 155.663 77.1191 156.447 76.8754 157.341C76.8754 157.341 76.8754 157.406 76.8754 157.431C76.1328 160.426 64.9781 234.314 64.9781 234.314Z" stroke="#263238" stroke-linecap="round" stroke-linejoin="round"/>
    <path d="M87.7771 236.754C84.2928 236.754 69.2866 235.171 66.961 234.673C66.299 234.536 65.6452 234.361 65.0026 234.151V234.314C65.0026 234.314 63.9989 255.335 64.1131 261.161C64.2274 266.987 64.3661 269.166 67.2547 269.68C70.1434 270.194 81.2899 271.312 84.3907 270.186C87.4915 269.06 88.4707 268.064 89.5152 266.342C90.5597 264.621 95.2272 242.678 96.4838 235.449C93.5462 236.975 90.6413 236.73 87.7771 236.754Z" fill="#263238"/>
    <mask id="mask1_10_605" style="mask-type:luminance" maskUnits="userSpaceOnUse" x="64" y="234" width="33" height="37">
        <path d="M87.7771 236.754C84.2928 236.754 69.2866 235.171 66.961 234.673C66.299 234.536 65.6452 234.361 65.0026 234.151V234.314C65.0026 234.314 63.9989 255.335 64.1131 261.161C64.2274 266.987 64.3661 269.166 67.2547 269.68C70.1434 270.194 81.2899 271.312 84.3907 270.186C87.4915 269.06 88.4707 268.064 89.5152 266.342C90.5597 264.621 95.2272 242.678 96.4838 235.449C93.5462 236.975 90.6413 236.73 87.7771 236.754Z" fill="white"/>
    </mask>
    <g mask="url(#mask1_10_605)">
        <path opacity="0.5" d="M82.7179 270.529C83.2731 270.477 83.8207 270.362 84.3499 270.186C87.4833 269.06 88.4299 268.064 89.4744 266.342C90.5189 264.621 95.4312 241.397 96.5409 234.877C97.6507 228.358 102.131 158.892 102.131 158.892C102.131 158.892 102.302 157.415 99.3235 156.101C99.0357 155.98 98.7381 155.885 98.4341 155.815C97.7894 171.931 95.6107 191.066 91.7837 213.8C88.2096 235.31 84.1541 261.308 82.7179 270.529Z" fill="black"/>
        <path opacity="0.26" d="M87.8098 238.696C90.1016 238.599 92.3757 238.248 94.5907 237.652" stroke="white" stroke-linecap="round" stroke-linejoin="round"/>
        <path d="M66.1694 236.289C66.1694 236.289 84.5866 238.811 87.8098 238.696" stroke="white" stroke-linecap="round" stroke-linejoin="round"/>
    </g>
    <path d="M87.7771 236.754C84.2928 236.754 69.2866 235.171 66.961 234.673C66.299 234.536 65.6452 234.361 65.0026 234.151V234.314C65.0026 234.314 63.9989 255.335 64.1131 261.161C64.2274 266.987 64.3661 269.166 67.2547 269.68C70.1434 270.194 81.2899 271.312 84.3907 270.186C87.4915 269.06 88.4707 268.064 89.5152 266.342C90.5597 264.621 95.2272 242.678 96.4838 235.449C93.5462 236.975 90.6413 236.73 87.7771 236.754Z" stroke="#263238" stroke-linecap="round" stroke-linejoin="round"/>
    <path d="M327.77 150.564C344.921 141.631 351.584 120.486 342.652 103.335C333.719 86.1834 312.574 79.5205 295.423 88.4528C278.271 97.3851 271.609 118.53 280.541 135.682C289.473 152.833 310.618 159.496 327.77 150.564Z" fill="#263238" stroke="#263238" stroke-linecap="round" stroke-linejoin="round"/>
    <path d="M343.725 120.354C346.112 101.164 332.49 83.6727 313.3 81.2858C294.11 78.899 276.618 92.5207 274.232 111.711C271.845 130.901 285.467 148.393 304.657 150.779C323.847 153.166 341.338 139.545 343.725 120.354Z" fill="white" stroke="#263238" stroke-linecap="round" stroke-linejoin="round"/>
    <path d="M340.106 121.151C342.929 103.963 331.285 87.7402 314.097 84.9163C296.91 82.0925 280.687 93.7367 277.863 110.924C275.039 128.112 286.684 144.335 303.871 147.159C321.059 149.983 337.282 138.338 340.106 121.151Z" fill="#263238" stroke="#263238" stroke-linecap="round" stroke-linejoin="round"/>
    <path d="M305.29 92.3304C305.29 92.3304 301.814 83.6318 295.718 77.52C289.623 71.4081 264.841 67.5158 264.841 67.5158C268.843 71.3789 272.481 75.6018 275.71 80.1312C281.365 87.9566 300.076 105.794 300.076 105.794C300.076 105.794 290.937 97.9608 282.671 97.0958C274.405 96.2308 253.531 100.572 252.226 100.572C250.92 100.572 260.051 104.056 266.579 107.1C273.107 110.144 298.33 112.755 298.33 112.755C298.33 112.755 287.46 115.799 280.059 118.41C272.658 121.021 265.706 140.156 265.706 140.156C265.706 140.156 275.278 131.458 283.544 129.279C291.81 127.1 303.552 123.216 303.552 123.216C303.552 123.216 296.159 131.482 294.421 137.137C292.683 142.792 293.98 155.84 293.98 155.84C293.98 155.84 297.897 143.657 302.679 138.875C307.461 134.093 312.683 125.819 312.683 125.819C315.093 129.747 317.273 133.813 319.211 137.994C322.687 145.395 324.866 156.264 324.866 156.264C324.866 156.264 330.521 144.089 330.088 137.994C329.656 131.898 323.136 121.037 323.136 121.037C323.136 121.037 327.485 117.994 334.005 120.605C340.525 123.216 351.843 134.093 351.843 134.093C351.843 134.093 349.232 119.74 344.882 114.085C340.533 108.43 321.83 106.684 321.83 106.684C321.83 106.684 332.267 100.596 338.795 99.2908C345.323 97.9852 354.022 101.029 354.022 101.029C354.022 101.029 344.009 87.1569 336.184 86.243C328.358 85.3291 316.6 97.5528 316.6 97.5528C316.6 97.5528 319.211 84.4968 320.084 80.1556C320.957 75.8145 319.211 64.9291 319.211 64.9291C319.211 64.9291 314.429 67.5403 308.774 75.8064C307.115 78.1863 305.952 80.8756 305.353 83.7143C304.755 86.553 304.733 89.4832 305.29 92.3304Z" fill="#3B5775"/>
    <path opacity="0.5" d="M305.29 92.3304C305.29 92.3304 301.814 83.6318 295.718 77.52C289.623 71.4081 264.841 67.5158 264.841 67.5158C268.843 71.3789 272.481 75.6018 275.71 80.1312C281.365 87.9566 300.076 105.794 300.076 105.794C300.076 105.794 290.937 97.9608 282.671 97.0958C274.405 96.2308 253.531 100.572 252.226 100.572C250.92 100.572 260.051 104.056 266.579 107.1C273.107 110.144 298.33 112.755 298.33 112.755C298.33 112.755 287.46 115.799 280.059 118.41C272.658 121.021 265.706 140.156 265.706 140.156C265.706 140.156 275.278 131.458 283.544 129.279C291.81 127.1 303.552 123.216 303.552 123.216C303.552 123.216 296.159 131.482 294.421 137.137C292.683 142.792 293.98 155.84 293.98 155.84C293.98 155.84 297.897 143.657 302.679 138.875C307.461 134.093 312.683 125.819 312.683 125.819C315.093 129.747 317.273 133.813 319.211 137.994C322.687 145.395 324.866 156.264 324.866 156.264C324.866 156.264 330.521 144.089 330.088 137.994C329.656 131.898 323.136 121.037 323.136 121.037C323.136 121.037 327.485 117.994 334.005 120.605C340.525 123.216 351.843 134.093 351.843 134.093C351.843 134.093 349.232 119.74 344.882 114.085C340.533 108.43 321.83 106.684 321.83 106.684C321.83 106.684 332.267 100.596 338.795 99.2908C345.323 97.9852 354.022 101.029 354.022 101.029C354.022 101.029 344.009 87.1569 336.184 86.243C328.358 85.3291 316.6 97.5528 316.6 97.5528C316.6 97.5528 319.211 84.4968 320.084 80.1556C320.957 75.8145 319.211 64.9291 319.211 64.9291C319.211 64.9291 314.429 67.5403 308.774 75.8064C307.115 78.1863 305.952 80.8756 305.353 83.7143C304.755 86.553 304.733 89.4832 305.29 92.3304Z" fill="black"/>
    <path d="M313.858 79.0948C314.16 77.8382 314.495 76.5979 314.862 75.3657" stroke="#263238" stroke-width="0.5" stroke-linecap="round" stroke-linejoin="round"/>
    <path d="M284.784 79.0867C288.864 82.0651 293.948 86.1532 296.567 89.6947C301.349 96.2227 310.921 110.144 310.921 110.144C310.648 100.797 311.39 91.448 313.132 82.2609" stroke="#263238" stroke-width="0.5" stroke-linecap="round" stroke-linejoin="round"/>
    <path d="M278.762 74.9332C278.762 74.9332 280.027 75.7492 281.928 77.0467" stroke="#263238" stroke-width="0.5" stroke-linecap="round" stroke-linejoin="round"/>
    <path d="M310.945 110.16C310.945 110.16 327.477 93.6278 334.438 92.3222C341.398 91.0166 347.494 96.239 347.494 96.239" stroke="#263238" stroke-width="0.5" stroke-linecap="round" stroke-linejoin="round"/>
    <path d="M281.406 124.032C277.383 126.594 277.016 128.039 277.016 128.039" stroke="#263238" stroke-width="0.5" stroke-linecap="round" stroke-linejoin="round"/>
    <path d="M347.053 125.395C347.053 125.395 344.442 118.867 335.303 115.823C326.163 112.779 311.818 112.339 311.818 112.339C311.818 112.339 291.687 118.932 284.327 122.367" stroke="#263238" stroke-width="0.5" stroke-linecap="round" stroke-linejoin="round"/>
    <path d="M303.03 109.858C307.926 111.27 311.818 112.306 311.818 112.306" stroke="#263238" stroke-width="0.5" stroke-linecap="round" stroke-linejoin="round"/>
    <path d="M272.389 102.131C277.114 102.416 283.201 103.061 286.587 104.513C289.345 105.696 294.788 107.41 299.913 108.936" stroke="#263238" stroke-width="0.5" stroke-linecap="round" stroke-linejoin="round"/>
    <path d="M265.706 101.902C265.706 101.902 267.297 101.902 269.647 101.992" stroke="#263238" stroke-width="0.5" stroke-linecap="round" stroke-linejoin="round"/>
    <path d="M310.945 114.95C310.945 114.95 298.77 133.22 297.889 137.569C297.366 140.149 297.073 142.771 297.016 145.403" stroke="#263238" stroke-width="0.5" stroke-linecap="round" stroke-linejoin="round"/>
    <path d="M316.363 120.703C318.705 123.73 321.52 127.761 322.687 131.05C324.063 135.01 325.084 139.084 325.739 143.224" stroke="#263238" stroke-width="0.5" stroke-linecap="round" stroke-linejoin="round"/>
    <path d="M312.683 116.255C312.683 116.255 313.654 117.333 315 118.989" stroke="#263238" stroke-width="0.5" stroke-linecap="round" stroke-linejoin="round"/>
    <path d="M299.766 96.084C299.766 96.084 297.514 86.9856 298.909 78.4828C300.304 69.9801 318.167 52.3708 318.167 52.3708C317.165 57.8434 316.671 63.3967 316.69 68.9601C316.69 78.6216 311.867 104.048 311.867 104.048C311.867 104.048 314.723 92.3549 320.933 86.8305C327.143 81.3062 346.629 72.624 347.689 71.808C348.75 70.992 343.365 79.2009 339.84 85.4841C336.314 91.7673 317.342 108.593 317.342 108.593C317.342 108.593 327.95 104.725 335.482 102.53C343.014 100.335 359.856 111.857 359.856 111.857C359.856 111.857 347.012 110.372 339.032 113.424C331.051 116.476 319.227 120.148 319.227 120.148C319.227 120.148 330.056 122.555 334.731 126.129C339.407 129.703 345.984 141.07 345.984 141.07C345.984 141.07 335.702 133.457 329.028 132.363C322.353 131.27 313.287 127.598 313.287 127.598C313.626 132.195 314.228 136.77 315.09 141.299C316.575 149.336 321.153 159.438 321.153 159.438C321.153 159.438 309.46 152.845 306.261 147.639C303.062 142.433 302.018 129.801 302.018 129.801C302.018 129.801 296.706 129.866 292.928 135.791C289.15 141.715 286.31 157.145 286.31 157.145C286.31 157.145 280.051 143.967 280.288 136.835C280.524 129.703 294.707 117.382 294.707 117.382C294.707 117.382 282.671 118.524 276.608 121.266C270.545 124.007 265.257 131.564 265.257 131.564C265.257 131.564 265.257 114.428 271.116 109.148C276.975 103.869 293.621 106.896 293.621 106.896L280.647 94.7865C277.383 91.7673 272.487 81.9182 272.487 81.9182C272.487 81.9182 277.889 81.2409 287.305 84.66C290.043 85.6294 292.558 87.1406 294.699 89.1034C296.84 91.0662 298.563 93.4403 299.766 96.084Z" fill="#3B5775"/>
    <path d="M285.086 90.323C284.107 89.4798 283.111 88.6638 282.099 87.875" stroke="#263238" stroke-width="0.5" stroke-linecap="round" stroke-linejoin="round"/>
    <path d="M308.676 73.3747C307.102 78.1646 305.355 84.456 305.306 88.8787C305.225 96.9653 305.576 113.856 305.576 113.856C300.347 106.103 294.292 98.9399 287.518 92.4936" stroke="#263238" stroke-width="0.5" stroke-linecap="round" stroke-linejoin="round"/>
    <path d="M311.173 66.4713C311.173 66.4713 310.602 67.8667 309.827 70.0372" stroke="#263238" stroke-width="0.5" stroke-linecap="round" stroke-linejoin="round"/>
    <path d="M305.576 113.865C305.576 113.865 282.507 110.078 276.094 113.049C269.68 116.019 267.779 123.836 267.779 123.836" stroke="#263238" stroke-width="0.5" stroke-linecap="round" stroke-linejoin="round"/>
    <path d="M337.636 107.859C342.402 107.598 343.536 108.561 343.536 108.561" stroke="#263238" stroke-width="0.5" stroke-linecap="round" stroke-linejoin="round"/>
    <path d="M285.127 147.288C285.127 147.288 283.446 140.466 289.084 132.665C294.723 124.864 306.139 116.141 306.139 116.141C306.139 116.141 326.327 109.752 334.315 108.251" stroke="#263238" stroke-width="0.5" stroke-linecap="round" stroke-linejoin="round"/>
    <path d="M311.826 109.001C308.701 112.983 306.114 116.141 306.114 116.141" stroke="#263238" stroke-width="0.5" stroke-linecap="round" stroke-linejoin="round"/>
    <path d="M332.21 84.864C328.53 87.8505 323.968 91.9223 322.059 95.0803C320.508 97.6507 317.098 102.22 313.825 106.447" stroke="#263238" stroke-width="0.5" stroke-linecap="round" stroke-linejoin="round"/>
    <path d="M337.498 80.784C337.498 80.784 336.208 81.7061 334.356 83.1504" stroke="#263238" stroke-width="0.5" stroke-linecap="round" stroke-linejoin="round"/>
    <path d="M308.366 117.749C308.366 117.749 328.913 125.484 332.161 128.512C334.086 130.304 335.85 132.261 337.432 134.363" stroke="#263238" stroke-width="0.5" stroke-linecap="round" stroke-linejoin="round"/>
    <path d="M307.322 125.574C307.183 129.409 307.249 134.33 308.211 137.676C309.407 141.695 310.958 145.6 312.846 149.344" stroke="#263238" stroke-width="0.5" stroke-linecap="round" stroke-linejoin="round"/>
    <path d="M307.714 119.83C307.714 119.83 307.55 121.258 307.428 123.396" stroke="#263238" stroke-width="0.5" stroke-linecap="round" stroke-linejoin="round"/>
    <path opacity="0.3" d="M315.963 296.477C314.397 292.063 314.119 268.905 314.47 252.413L323.634 254.396C325.225 254.741 326.887 254.494 328.309 253.703C328.655 253.51 328.983 253.286 329.289 253.033C329.587 252.79 329.861 252.516 330.105 252.217C330.973 251.257 331.54 250.062 331.737 248.782C331.77 248.555 331.792 248.326 331.802 248.097C331.864 246.773 331.532 245.461 330.847 244.327C330.625 243.958 330.368 243.611 330.08 243.29C329.035 242.131 327.618 241.372 326.074 241.144L315.009 239.512C315.107 238.076 315.221 236.958 315.335 236.248C315.533 235.172 315.615 234.078 315.58 232.984L316.339 230.536C317.457 226.954 316.608 221.683 313.564 218.688C310.521 215.693 299.692 210.422 296.526 207.656C293.36 204.889 269.655 188.006 265.404 189.002C261.153 189.997 256.126 196.06 251.842 199.414C247.558 202.768 232.127 215.424 232.127 215.424C232.176 214.894 224.196 218.117 222.254 221.242C222.108 221.382 221.994 221.553 221.922 221.742C221.851 221.931 221.822 222.134 221.838 222.335C222.066 223.225 222.508 224.045 223.125 224.725C223.742 225.405 224.516 225.923 225.379 226.236L218.459 225.216C218.068 225.158 217.668 225.214 217.306 225.376C216.945 225.538 216.637 225.799 216.419 226.13C213.971 225.763 208.978 225.216 205.371 226.203C205.371 226.203 211.254 229.084 215.652 230.047C215.769 230.387 215.971 230.691 216.24 230.93C216.509 231.169 216.835 231.334 217.187 231.409L226.367 233.376C226.198 233.909 226.073 234.455 225.991 235.008C225.926 235.512 225.997 236.025 226.195 236.493C226.236 236.803 226.293 237.121 226.367 237.456C227.672 243.005 234.722 249.745 239.863 254.2C245.004 258.656 249.924 266.285 252.976 275.131C256.028 283.976 257.938 292.128 264.727 301.104C265.882 302.621 267.139 304.058 268.488 305.404L331.786 345.388C331.786 345.388 318.24 302.964 315.963 296.477ZM233.376 226.889C233.27 227.052 233.164 227.215 233.074 227.387L231.328 227.125C232.015 227.095 232.7 227.016 233.376 226.889Z" fill="black"/>
    <path d="M294.707 367.127L254.298 297.277C254.298 297.277 249.778 265.543 240.141 252.772C230.504 240.002 216.991 230.683 224.832 224.155C232.674 217.627 252.576 205.142 256.656 205.942C260.736 206.742 288.203 220.63 295.963 222.874C303.723 225.118 306.441 228.415 305.282 235.114C304.123 241.813 303.65 288.791 305.943 295.278C308.236 301.765 333.744 348 333.744 348" fill="white"/>
    <mask id="mask2_10_605" style="mask-type:luminance" maskUnits="userSpaceOnUse" x="222" y="205" width="112" height="163">
        <path d="M294.707 367.127L254.298 297.277C254.298 297.277 249.778 265.543 240.141 252.772C230.504 240.002 216.991 230.683 224.832 224.155C232.674 217.627 252.576 205.142 256.656 205.942C260.736 206.742 288.203 220.63 295.963 222.874C303.723 225.118 306.441 228.415 305.282 235.114C304.123 241.813 303.65 288.791 305.943 295.278C308.236 301.765 333.744 348 333.744 348" fill="white"/>
    </mask>
    <g mask="url(#mask2_10_605)">
        <path d="M306 295.294C303.691 288.807 304.18 241.846 305.339 235.13C306.049 231.05 305.298 228.203 302.826 226.154C302.914 229.876 302.308 233.581 301.039 237.081C298.86 243.258 297.775 247.615 297.775 247.615C297.775 247.615 297.416 269.77 298.868 281.071C300.321 292.373 307.583 312.308 314.486 323.209C319.595 331.272 326.881 338.534 330.333 341.773C323.234 328.848 307.73 300.288 306 295.294Z" fill="#3B5775"/>
        <path opacity="0.5" d="M306 295.294C303.691 288.807 304.18 241.846 305.339 235.13C306.049 231.05 305.298 228.203 302.826 226.154C302.914 229.876 302.308 233.581 301.039 237.081C298.86 243.258 297.775 247.615 297.775 247.615C297.775 247.615 297.416 269.77 298.868 281.071C300.321 292.373 307.583 312.308 314.486 323.209C319.595 331.272 326.881 338.534 330.333 341.773C323.234 328.848 307.73 300.288 306 295.294Z" fill="white"/>
    </g>
    <path d="M294.707 367.127L254.298 297.277C254.298 297.277 249.778 265.543 240.141 252.772C230.504 240.002 216.991 230.683 224.832 224.155C232.674 217.627 252.576 205.142 256.656 205.942C260.736 206.742 288.203 220.63 295.963 222.874C303.723 225.118 306.441 228.415 305.282 235.114C304.123 241.813 303.65 288.791 305.943 295.278C308.236 301.765 333.744 348 333.744 348" stroke="#263238" stroke-miterlimit="10" stroke-linecap="round"/>
    <path d="M214.184 225.412C220.521 225.062 226.657 223.059 231.981 219.602C241.063 213.792 238.158 212.699 238.158 212.699C238.158 212.699 242.874 211.246 245.779 210.161C248.214 209.074 250.528 207.734 252.683 206.162C252.683 206.162 264.311 213.792 269.753 215.954C272.36 217.061 275.043 217.978 277.783 218.696L285.38 228.668C281.108 230.682 277.467 233.822 274.845 237.75C270.488 244.278 265.053 253.001 262.491 254.07C259.929 255.139 261.038 256.249 249.778 251.891C238.517 247.534 213.457 231.956 214.184 225.412Z" fill="#3B5775"/>
    <path opacity="0.5" d="M214.184 225.412C220.521 225.062 226.657 223.059 231.981 219.602C241.063 213.792 238.158 212.699 238.158 212.699C238.158 212.699 242.874 211.246 245.779 210.161C248.214 209.074 250.528 207.734 252.683 206.162C252.683 206.162 264.311 213.792 269.753 215.954C272.36 217.061 275.043 217.978 277.783 218.696L285.38 228.668C281.108 230.682 277.467 233.822 274.845 237.75C270.488 244.278 265.053 253.001 262.491 254.07C259.929 255.139 261.038 256.249 249.778 251.891C238.517 247.534 213.457 231.956 214.184 225.412Z" fill="white"/>
    <path d="M234.306 228.766C234.306 228.766 243.037 227.688 249.19 216.485C249.19 216.485 256.436 219.553 263.976 217.586" stroke="#263238" stroke-miterlimit="10" stroke-linecap="round"/>
    <path d="M257.978 220.663C257.978 220.663 253.768 231.809 262.646 246.554" stroke="#263238" stroke-miterlimit="10" stroke-linecap="round"/>
    <path d="M248.651 221.683C248.651 221.683 253.05 227.093 253.768 231.809" stroke="#263238" stroke-miterlimit="10" stroke-linecap="round"/>
    <path d="M256.885 251.769C256.885 251.769 264.229 247.126 268.138 242.295C272.046 237.464 273.809 232.372 279.97 230.34" stroke="#263238" stroke-miterlimit="10" stroke-linecap="round"/>
    <path d="M249.19 216.485L247.403 214.371" stroke="#263238" stroke-miterlimit="10" stroke-linecap="round"/>
    <path d="M207.9 225.216C207.9 225.216 200.312 223.682 195.367 225.036C195.367 225.036 202.645 228.602 207.06 229.116L207.9 225.216Z" fill="#263238" stroke="#263238" stroke-miterlimit="10" stroke-linecap="round"/>
    <path d="M316.037 240.018L208.455 224.033C207.942 223.956 207.419 224.074 206.988 224.362C206.556 224.65 206.248 225.088 206.122 225.591L205.632 227.664C205.562 227.936 205.548 228.219 205.59 228.497C205.632 228.774 205.731 229.04 205.878 229.279C206.026 229.517 206.221 229.724 206.451 229.885C206.68 230.046 206.94 230.16 207.215 230.218L313.662 253.229C314.561 253.423 315.49 253.431 316.392 253.252C317.295 253.073 318.15 252.71 318.907 252.187C319.663 251.664 320.304 250.991 320.79 250.21C321.276 249.43 321.597 248.557 321.732 247.648C321.861 246.773 321.815 245.881 321.598 245.024C321.381 244.166 320.997 243.36 320.468 242.651C319.939 241.943 319.275 241.345 318.514 240.893C317.754 240.441 316.912 240.144 316.037 240.018Z" fill="#3B5775" stroke="#263238" stroke-miterlimit="10" stroke-linecap="round"/>
    <path d="M316.037 240.018L299.774 237.57C298.289 238.47 297.13 239.82 296.465 241.424C295.8 243.028 295.665 244.803 296.077 246.489C296.352 247.68 296.887 248.794 297.644 249.753L313.63 253.205C314.529 253.399 315.458 253.407 316.36 253.228C317.262 253.048 318.118 252.686 318.874 252.163C319.63 251.64 320.272 250.967 320.758 250.186C321.244 249.405 321.564 248.533 321.7 247.623C321.952 245.865 321.498 244.078 320.437 242.653C319.376 241.228 317.794 240.281 316.037 240.018Z" fill="#263238" stroke="#263238" stroke-miterlimit="10" stroke-linecap="round"/>
    <path d="M272.495 250.055C272.495 250.055 263.242 252.226 259.104 251.246C254.967 250.267 246.522 238.386 240.72 234.478C234.918 230.569 231.385 229.639 225.314 228.725C219.243 227.811 215.049 230.74 216.338 236.297C217.627 241.854 224.686 248.586 229.835 253.042C234.983 257.497 239.896 265.118 242.948 273.972C245.999 282.826 247.909 290.961 254.698 299.904C261.487 308.848 269.957 312.528 272.805 313.026" fill="white"/>
    <mask id="mask3_10_605" style="mask-type:luminance" maskUnits="userSpaceOnUse" x="216" y="228" width="57" height="86">
        <path d="M272.495 250.055C272.495 250.055 263.242 252.226 259.104 251.246C254.967 250.267 246.522 238.386 240.72 234.478C234.918 230.569 231.385 229.639 225.314 228.725C219.243 227.811 215.049 230.74 216.338 236.297C217.627 241.854 224.686 248.586 229.835 253.042C234.983 257.497 239.896 265.118 242.948 273.972C245.999 282.826 247.909 290.961 254.698 299.904C261.487 308.848 269.957 312.528 272.805 313.026" fill="white"/>
    </mask>
    <g mask="url(#mask3_10_605)">
        <path d="M267.901 251.369L267.248 251.034C264.441 251.442 261.153 251.728 259.088 251.246C254.959 250.267 246.505 238.386 240.712 234.478C234.918 230.569 231.377 229.639 225.306 228.725C224.337 228.574 223.355 228.531 222.376 228.594C227.056 229.769 231.481 231.791 235.432 234.559C241.895 239.227 246.563 251.067 253.735 253.221C260.908 255.375 267.901 251.369 267.901 251.369Z" fill="#3B5775"/>
        <path opacity="0.5" d="M267.901 251.369L267.248 251.034C264.441 251.442 261.153 251.728 259.088 251.246C254.959 250.267 246.505 238.386 240.712 234.478C234.918 230.569 231.377 229.639 225.306 228.725C224.337 228.574 223.355 228.531 222.376 228.594C227.056 229.769 231.481 231.791 235.432 234.559C241.895 239.227 246.563 251.067 253.735 253.221C260.908 255.375 267.901 251.369 267.901 251.369Z" fill="white"/>
    </g>
    <path d="M272.495 250.055C272.495 250.055 263.242 252.226 259.104 251.246C254.967 250.267 246.522 238.386 240.72 234.478C234.918 230.569 231.385 229.639 225.314 228.725C219.243 227.811 215.049 230.74 216.338 236.297C217.627 241.854 224.686 248.586 229.835 253.042C234.983 257.497 239.896 265.118 242.948 273.972C245.999 282.826 247.909 290.961 254.698 299.904C261.487 308.848 269.957 312.528 272.805 313.026" stroke="#263238" stroke-miterlimit="10" stroke-linecap="round"/>
    <path d="M221.005 240.279C221.005 240.279 221.446 235.489 228.007 231.026C228.007 231.026 223.625 228.145 220.622 228.659C217.619 229.174 216.436 230.814 215.979 233.849C215.522 236.885 221.005 240.279 221.005 240.279Z" fill="white" stroke="#263238" stroke-miterlimit="10" stroke-linecap="round"/>
    <path d="M225.314 245.363C225.818 245.871 226.382 246.315 226.995 246.685" stroke="#263238" stroke-miterlimit="10" stroke-linecap="round"/>
    <path d="M230.112 234.045C230.112 234.045 223.143 237.636 224.261 243.233" stroke="#263238" stroke-miterlimit="10" stroke-linecap="round"/>
    <path d="M305.184 233.009L306.294 229.427C307.403 225.852 306.563 220.581 303.519 217.586C300.476 214.592 289.647 209.32 286.481 206.554C283.315 203.788 259.619 186.864 255.408 187.9C251.197 188.937 246.13 194.959 241.838 198.304C237.546 201.65 222.156 214.249 222.156 214.249C222.156 214.249 211.344 218.933 211.834 221.136C212.323 223.339 214.567 226.154 221.348 225.934C228.129 225.714 239.431 218.957 241.144 217.962C242.858 216.966 253.523 209.981 253.523 209.981C256.285 212.714 259.457 214.999 262.923 216.754C267.958 219.088 268.635 219.324 268.635 219.324C268.635 219.324 269.949 224.098 273.646 226.546" fill="white"/>
    <mask id="mask4_10_605" style="mask-type:luminance" maskUnits="userSpaceOnUse" x="211" y="187" width="96" height="47">
        <path d="M305.184 233.009L306.294 229.427C307.403 225.852 306.563 220.581 303.519 217.586C300.476 214.592 289.647 209.32 286.481 206.554C283.315 203.788 259.619 186.864 255.408 187.9C251.197 188.937 246.13 194.959 241.838 198.304C237.546 201.65 222.156 214.249 222.156 214.249C222.156 214.249 211.344 218.933 211.834 221.136C212.323 223.339 214.567 226.154 221.348 225.934C228.129 225.714 239.431 218.957 241.144 217.962C242.858 216.966 253.523 209.981 253.523 209.981C256.285 212.714 259.457 214.999 262.923 216.754C267.958 219.088 268.635 219.324 268.635 219.324C268.635 219.324 269.949 224.098 273.646 226.546" fill="white"/>
    </mask>
    <g mask="url(#mask4_10_605)">
        <path d="M299.178 217.782C303.095 220.859 303.348 226.954 302.263 232.413L305.192 233.009L306.302 229.427C307.412 225.852 306.571 220.581 303.528 217.586C300.484 214.592 289.655 209.32 286.489 206.554C285.673 205.836 283.421 204.147 280.508 202.074L279.929 202.164C279.929 202.164 294.095 213.792 299.178 217.782Z" fill="#3B5775"/>
        <path opacity="0.5" d="M299.178 217.782C303.095 220.859 303.348 226.954 302.263 232.413L305.192 233.009L306.302 229.427C307.412 225.852 306.571 220.581 303.528 217.586C300.484 214.592 289.655 209.32 286.489 206.554C285.673 205.836 283.421 204.147 280.508 202.074L279.929 202.164C279.929 202.164 294.095 213.792 299.178 217.782Z" fill="white"/>
        <path d="M214.184 225.412C220.521 225.062 226.657 223.059 231.981 219.602C241.063 213.792 238.158 212.699 238.158 212.699C238.158 212.699 242.874 211.246 245.779 210.161C248.214 209.074 250.528 207.734 252.683 206.162C252.683 206.162 264.311 213.792 269.753 215.954C272.36 217.061 275.043 217.978 277.783 218.696L285.38 228.668C281.108 230.682 277.467 233.822 274.845 237.75C270.488 244.278 265.053 253.001 262.491 254.07C259.929 255.139 261.038 256.248 249.778 251.891C238.517 247.534 213.457 231.956 214.184 225.412Z" fill="#3B5775"/>
        <path opacity="0.5" d="M214.184 225.412C220.521 225.062 226.657 223.059 231.981 219.602C241.063 213.792 238.158 212.699 238.158 212.699C238.158 212.699 242.874 211.246 245.779 210.161C248.214 209.074 250.528 207.734 252.683 206.162C252.683 206.162 264.311 213.792 269.753 215.954C272.36 217.061 275.043 217.978 277.783 218.696L285.38 228.668C281.108 230.682 277.467 233.822 274.845 237.75C270.488 244.278 265.053 253.001 262.491 254.07C259.929 255.139 261.038 256.248 249.778 251.891C238.517 247.534 213.457 231.956 214.184 225.412Z" fill="white"/>
    </g>
    <path d="M305.184 233.009L306.294 229.427C307.403 225.852 306.563 220.581 303.519 217.586C300.476 214.592 289.647 209.32 286.481 206.554C283.315 203.788 259.619 186.864 255.408 187.9C251.197 188.937 246.13 194.959 241.838 198.304C237.546 201.65 222.156 214.249 222.156 214.249C222.156 214.249 211.344 218.933 211.834 221.136C212.323 223.339 214.567 226.154 221.348 225.934C228.129 225.714 239.431 218.957 241.144 217.962C242.858 216.966 253.523 209.981 253.523 209.981C256.285 212.714 259.457 214.999 262.923 216.754C267.958 219.088 268.635 219.324 268.635 219.324C268.635 219.324 269.949 224.098 273.646 226.546" stroke="#263238" stroke-miterlimit="10" stroke-linecap="round"/>
    <path d="M211.834 221.136C211.834 221.136 212.927 221.658 215.244 220.728C217.562 219.798 222.066 214.836 222.115 214.2C222.164 213.563 212.201 217.75 211.834 221.136Z" fill="white" stroke="#263238" stroke-miterlimit="10" stroke-linecap="round"/>
    <path d="M253.091 202.082C253.194 201.595 253.322 201.113 253.474 200.638" stroke="#263238" stroke-miterlimit="10" stroke-linecap="round"/>
    <path d="M253.523 209.998C252.901 208.038 252.665 205.976 252.829 203.927" stroke="#263238" stroke-miterlimit="10" stroke-linecap="round"/>
</svg>