<svg width="511" height="500" viewBox="0 0 511 500" fill="none" xmlns="http://www.w3.org/2000/svg">
    <path d="M463.29 214.71C462.877 210.53 462.31 206.357 461.59 202.19C456.25 171.34 439.59 125.19 401.76 118.7C354.15 110.58 349.76 128.27 305.85 123.49C253.1 117.73 225.85 63.24 167.25 89.27C144.39 99.41 134.4 117 135.77 140C136.95 159.67 147.77 185.45 136.49 203.94C124.24 224.04 89.55 253.71 84.49 294.88C79.43 336.05 118.16 387.73 166.11 393.47C214.06 399.21 259.98 366.67 291.61 372.41C308.86 375.55 323.41 384.81 339.85 390.03C360.85 396.69 392.25 402.23 412.08 389.91C429.71 378.96 437 357.56 443.46 339.74C457.65 300.39 467.46 256.38 463.29 214.71Z" fill="#C9B4EC"/>
    <path opacity="0.8" d="M463.29 214.71C462.877 210.53 462.31 206.357 461.59 202.19C456.25 171.34 439.59 125.19 401.76 118.7C354.15 110.58 349.76 128.27 305.85 123.49C253.1 117.73 225.85 63.24 167.25 89.27C144.39 99.41 134.4 117 135.77 140C136.95 159.67 147.77 185.45 136.49 203.94C124.24 224.04 89.55 253.71 84.49 294.88C79.43 336.05 118.16 387.73 166.11 393.47C214.06 399.21 259.98 366.67 291.61 372.41C308.86 375.55 323.41 384.81 339.85 390.03C360.85 396.69 392.25 402.23 412.08 389.91C429.71 378.96 437 357.56 443.46 339.74C457.65 300.39 467.46 256.38 463.29 214.71Z" fill="white"/>
    <path d="M412.67 181.01L417.11 190L427.03 191.44L419.85 198.44L421.54 208.32L412.67 203.66L403.8 208.32L405.49 198.44L398.31 191.44L408.23 190L412.67 181.01Z" fill="white"/>
    <path d="M279.46 189.42L283.89 198.41L293.81 199.85L286.63 206.85L288.33 216.73L279.46 212.06L270.58 216.73L272.28 206.85L265.1 199.85L275.02 198.41L279.46 189.42Z" fill="white"/>
    <path d="M366.11 202.58L370.67 205.06L375.3 202.7L374.35 207.81L378.02 211.49L372.87 212.17L370.51 216.79L368.27 212.1L363.14 211.28L366.91 207.71L366.11 202.58Z" fill="white"/>
    <path d="M419.13 322.21L423.7 324.69L428.33 322.34L427.38 327.44L431.05 331.12L425.9 331.8L423.54 336.43L421.3 331.74L416.17 330.92L419.94 327.34L419.13 322.21Z" fill="white"/>
    <path d="M197.33 96.53L201.89 99L206.52 96.65L205.57 101.76L209.24 105.44L204.09 106.11L201.73 110.74L199.5 106.05L194.36 105.23L198.13 101.66L197.33 96.53Z" fill="white"/>
    <path d="M116.98 291.21L121.55 293.69L126.18 291.34L125.23 296.44L128.9 300.12L123.75 300.8L121.39 305.43L119.15 300.74L114.02 299.92L117.79 296.34L116.98 291.21Z" fill="white"/>
    <path d="M128.89 245.05L160.54 288.63" stroke="#263238" stroke-width="4" stroke-linecap="round" stroke-linejoin="round"/>
    <path d="M151.77 254.52C151.77 254.52 152.36 258.24 154.7 258.63C157.04 259.02 160.4 256.39 156.04 249.76C151.68 243.13 143.39 247.76 144.04 254.93C144.69 262.1 165.19 283 156 289.73C150.78 293.52 145.67 292.48 140 284.64C134.33 276.8 139.16 271.36 143.86 272.14C148.56 272.92 153.6 280.14 151.01 282.5C148.42 284.86 144.01 282.61 144.12 279.5" stroke="#263238" stroke-width="4" stroke-linecap="round" stroke-linejoin="round"/>
    <path d="M209.39 208.06C209.39 208.06 212.51 210.17 211.86 212.46C211.21 214.75 207.4 216.66 203.27 209.89C199.14 203.12 206.82 197.58 213.06 201.23C219.3 204.88 229.46 232.35 239.45 226.87C245.11 223.77 246.34 218.7 241.68 210.18C237.02 201.66 230.03 203.77 228.74 208.35C227.45 212.93 231.84 220.57 235.05 219.23C238.26 217.89 238.13 212.96 235.28 211.72" stroke="#263238" stroke-width="4" stroke-linecap="round" stroke-linejoin="round"/>
    <path d="M145.16 233.6L176.81 277.19" stroke="#263238" stroke-width="4" stroke-linecap="round" stroke-linejoin="round"/>
    <path d="M161.44 222.16L193.08 265.74" stroke="#263238" stroke-width="4" stroke-linecap="round" stroke-linejoin="round"/>
    <path d="M177.71 210.71L209.35 254.29" stroke="#263238" stroke-width="4" stroke-linecap="round" stroke-linejoin="round"/>
    <path d="M193.98 199.27L225.63 242.85" stroke="#263238" stroke-width="4" stroke-linecap="round" stroke-linejoin="round"/>
    <path d="M210.25 187.82L241.9 231.4" stroke="#263238" stroke-width="4" stroke-linecap="round" stroke-linejoin="round"/>
    <path d="M154.91 308.21L106.9 240.07" stroke="#263238" stroke-width="4" stroke-linecap="round" stroke-linejoin="round"/>
    <path d="M110.9 238.49C110.587 237.699 110.047 237.019 109.348 236.535C108.649 236.051 107.822 235.785 106.972 235.771C106.121 235.757 105.286 235.996 104.571 236.456C103.856 236.917 103.294 237.579 102.956 238.36C102.618 239.14 102.518 240.003 102.67 240.839C102.822 241.676 103.219 242.449 103.81 243.06C104.402 243.671 105.161 244.094 105.992 244.273C106.823 244.453 107.689 244.382 108.48 244.07C109.006 243.864 109.486 243.556 109.893 243.163C110.3 242.771 110.625 242.302 110.85 241.783C111.075 241.265 111.195 240.707 111.203 240.142C111.212 239.576 111.109 239.015 110.9 238.49Z" fill="#263238"/>
    <path d="M213.65 163.68C213.337 162.889 212.797 162.209 212.098 161.725C211.399 161.241 210.572 160.975 209.722 160.961C208.871 160.947 208.036 161.186 207.321 161.646C206.606 162.107 206.044 162.769 205.706 163.55C205.368 164.33 205.268 165.193 205.42 166.029C205.572 166.866 205.969 167.639 206.56 168.25C207.152 168.861 207.911 169.284 208.742 169.463C209.573 169.643 210.439 169.572 211.23 169.26C211.756 169.054 212.236 168.745 212.643 168.353C213.05 167.961 213.375 167.492 213.6 166.973C213.825 166.454 213.945 165.897 213.953 165.332C213.962 164.766 213.859 164.205 213.65 163.68Z" fill="#263238"/>
    <path d="M116.34 253.29L219.73 180.11" stroke="#263238" stroke-width="4" stroke-linecap="round" stroke-linejoin="round"/>
    <path d="M257.36 227.87L209.65 165.26" stroke="#263238" stroke-width="4" stroke-linecap="round" stroke-linejoin="round"/>
    <path d="M241.85 225.51C241.85 225.51 180.23 270.95 164.85 282.16C149.47 293.37 146.25 294.67 145.66 299.16C145.07 303.65 140.19 318.73 137.8 323.43C135.41 328.13 138.33 330.75 140.61 331.73C142.602 332.434 144.675 332.884 146.78 333.07C146.78 333.07 139.78 339.13 143.96 342.65C148.14 346.17 158.25 345.49 158.25 345.49C158.25 345.49 155.7 352.14 161.45 355.99C167.2 359.84 177.89 352.34 179.33 355.99C180.77 359.64 175.59 371.57 185.8 378.38C196.01 385.19 212.8 379.98 216.32 386.59C219.84 393.2 214.86 400.81 226.13 406.72C237.4 412.63 249.4 403.72 253.03 409.3C256.66 414.88 257.97 430.15 266.95 436.3C279.18 444.65 295.27 444.9 313.31 432.15C331.35 419.4 336.9 398.87 346.25 382.01C355.6 365.15 368.76 369.85 384.25 363.76C399.74 357.67 402.65 344.76 403.2 331.83C403.75 318.9 400.95 312.96 421.64 305.75C442.33 298.54 434.19 268.34 429.49 265.96C424.79 263.58 399.17 251.08 392.11 248.69C385.05 246.3 257.11 221.38 257.11 221.38C257.11 221.38 247.4 220.5 241.85 225.51Z" fill="white"/>
    <mask id="mask0_3_59" style="mask-type:luminance" maskUnits="userSpaceOnUse" x="136" y="221" width="300" height="222">
        <path d="M241.85 225.51C241.85 225.51 180.23 270.95 164.85 282.16C149.47 293.37 146.25 294.67 145.66 299.16C145.07 303.65 140.19 318.73 137.8 323.43C135.41 328.13 138.33 330.75 140.61 331.73C142.602 332.434 144.675 332.884 146.78 333.07C146.78 333.07 139.78 339.13 143.96 342.65C148.14 346.17 158.25 345.49 158.25 345.49C158.25 345.49 155.7 352.14 161.45 355.99C167.2 359.84 177.89 352.34 179.33 355.99C180.77 359.64 175.59 371.57 185.8 378.38C196.01 385.19 212.8 379.98 216.32 386.59C219.84 393.2 214.86 400.81 226.13 406.72C237.4 412.63 249.4 403.72 253.03 409.3C256.66 414.88 257.97 430.15 266.95 436.3C279.18 444.65 295.27 444.9 313.31 432.15C331.35 419.4 336.9 398.87 346.25 382.01C355.6 365.15 368.76 369.85 384.25 363.76C399.74 357.67 402.65 344.76 403.2 331.83C403.75 318.9 400.95 312.96 421.64 305.75C442.33 298.54 434.19 268.34 429.49 265.96C424.79 263.58 399.17 251.08 392.11 248.69C385.05 246.3 257.11 221.38 257.11 221.38C257.11 221.38 247.4 220.5 241.85 225.51Z" fill="white"/>
    </mask>
    <g mask="url(#mask0_3_59)">
        <path d="M429.5 265.94C424.8 263.56 399.18 251.06 392.12 248.67C393.164 250.011 394.091 251.44 394.89 252.94C400.3 254.78 410.89 258.94 407.45 258.47C403.52 257.9 400.71 259.03 409.69 262.39C418.67 265.75 431.02 277.55 424.29 282.6C418.79 286.72 399.11 272.54 392.04 267.18C390.19 268.68 388.1 269.93 386.39 271.18C380.51 275.37 375.19 282.18 369.22 289.7C363.25 297.22 335.76 312.28 330.62 317.13C328.62 319.03 325.02 322.98 320.89 327.47C324.18 331.18 345 354.9 336.72 353.35C327.72 351.67 310.9 333.7 313.14 339.88C315.38 346.06 319.32 349.42 313.14 348.88C309.69 348.56 306.42 346.5 304.01 344.44C303.01 345.25 302.13 345.98 301.27 346.59C293.9 351.85 287.38 358.42 281.77 361.59C286.09 366.3 295.36 376.49 301.92 388.72C310.34 404.44 287.32 370.72 283.92 370.2C280.52 369.68 301.33 396.58 303.01 420.2C304.69 443.82 282.24 440.97 278.87 430.3C276.22 421.89 274.96 386.58 274.54 372.04C273.73 369.82 272.87 367.2 272.14 364.63C272.07 364.39 272.01 364.2 271.95 364.04H271.42C270.48 367.86 271.42 397.72 264.28 403.94C256.61 410.58 259.65 368.35 260.28 360.76C256.51 359.47 251.91 358.06 247.87 356.76C247.314 360.98 245.835 365.026 243.54 368.61C239.05 375.34 242.98 364.68 242.98 359.61C242.98 354.54 231.19 398.91 227.82 393.29C224.45 387.67 231.75 348.95 231.75 348.95C232.066 348.382 232.463 347.863 232.93 347.41C230.13 344.71 227.63 342.1 226.11 340.97C224.04 339.44 220.19 337.53 216.19 335.37C215.56 337.37 214.77 338.92 213.79 339.37C211.44 340.54 210.46 335.17 210.08 331.81L209.08 331.17L208.63 330.86C207.33 332.58 205.32 335.31 204.24 337.12C202.55 339.93 203.67 331.51 202.55 329.82C201.43 328.13 192.45 346.1 190.2 339.93C187.95 333.76 191.34 318.39 191.34 318.39C187.86 315.53 180.7 316.46 174.13 315.29C167.56 314.12 165.64 306.87 160.93 304.49C156.22 302.11 149.16 302.07 148.28 298.65C147.984 297.259 148.015 295.818 148.37 294.44C146.887 295.616 145.922 297.323 145.68 299.2C145.08 303.67 140.21 318.77 137.82 323.47C135.43 328.17 138.35 330.79 140.63 331.77C142.622 332.474 144.695 332.924 146.8 333.11C146.8 333.11 139.8 339.17 143.98 342.69C148.16 346.21 158.27 345.53 158.27 345.53C158.27 345.53 155.72 352.18 161.47 356.03C167.22 359.88 177.91 352.38 179.35 356.03C180.79 359.68 175.61 371.61 185.82 378.42C196.03 385.23 212.82 380.02 216.34 386.63C219.86 393.24 214.88 400.85 226.15 406.76C237.42 412.67 249.42 403.76 253.05 409.34C256.68 414.92 257.99 430.19 266.97 436.34C279.2 444.69 295.29 444.94 313.33 432.19C331.37 419.44 336.92 398.91 346.27 382.05C355.62 365.19 368.78 369.89 384.27 363.8C399.76 357.71 402.67 344.8 403.22 331.87C403.77 318.94 400.97 313 421.66 305.79C442.35 298.58 434.2 268.32 429.5 265.94ZM373.2 353.89C367.03 348.84 356.93 305.06 356.93 305.06C356.93 296.06 364.78 312.35 367.59 314.06C370.4 315.77 365.35 300.58 363.1 296.66C360.85 292.74 374.89 306.2 384.43 331.46C393.97 356.72 379.38 358.94 373.2 353.89Z" fill="#C9B4EC"/>
        <path opacity="0.6" d="M429.5 265.94C424.8 263.56 399.18 251.06 392.12 248.67C393.164 250.011 394.091 251.44 394.89 252.94C400.3 254.78 410.89 258.94 407.45 258.47C403.52 257.9 400.71 259.03 409.69 262.39C418.67 265.75 431.02 277.55 424.29 282.6C418.79 286.72 399.11 272.54 392.04 267.18C390.19 268.68 388.1 269.93 386.39 271.18C380.51 275.37 375.19 282.18 369.22 289.7C363.25 297.22 335.76 312.28 330.62 317.13C328.62 319.03 325.02 322.98 320.89 327.47C324.18 331.18 345 354.9 336.72 353.35C327.72 351.67 310.9 333.7 313.14 339.88C315.38 346.06 319.32 349.42 313.14 348.88C309.69 348.56 306.42 346.5 304.01 344.44C303.01 345.25 302.13 345.98 301.27 346.59C293.9 351.85 287.38 358.42 281.77 361.59C286.09 366.3 295.36 376.49 301.92 388.72C310.34 404.44 287.32 370.72 283.92 370.2C280.52 369.68 301.33 396.58 303.01 420.2C304.69 443.82 282.24 440.97 278.87 430.3C276.22 421.89 274.96 386.58 274.54 372.04C273.73 369.82 272.87 367.2 272.14 364.63C272.07 364.39 272.01 364.2 271.95 364.04H271.42C270.48 367.86 271.42 397.72 264.28 403.94C256.61 410.58 259.65 368.35 260.28 360.76C256.51 359.47 251.91 358.06 247.87 356.76C247.314 360.98 245.835 365.026 243.54 368.61C239.05 375.34 242.98 364.68 242.98 359.61C242.98 354.54 231.19 398.91 227.82 393.29C224.45 387.67 231.75 348.95 231.75 348.95C232.066 348.382 232.463 347.863 232.93 347.41C230.13 344.71 227.63 342.1 226.11 340.97C224.04 339.44 220.19 337.53 216.19 335.37C215.56 337.37 214.77 338.92 213.79 339.37C211.44 340.54 210.46 335.17 210.08 331.81L209.08 331.17L208.63 330.86C207.33 332.58 205.32 335.31 204.24 337.12C202.55 339.93 203.67 331.51 202.55 329.82C201.43 328.13 192.45 346.1 190.2 339.93C187.95 333.76 191.34 318.39 191.34 318.39C187.86 315.53 180.7 316.46 174.13 315.29C167.56 314.12 165.64 306.87 160.93 304.49C156.22 302.11 149.16 302.07 148.28 298.65C147.984 297.259 148.015 295.818 148.37 294.44C146.887 295.616 145.922 297.323 145.68 299.2C145.08 303.67 140.21 318.77 137.82 323.47C135.43 328.17 138.35 330.79 140.63 331.77C142.622 332.474 144.695 332.924 146.8 333.11C146.8 333.11 139.8 339.17 143.98 342.69C148.16 346.21 158.27 345.53 158.27 345.53C158.27 345.53 155.72 352.18 161.47 356.03C167.22 359.88 177.91 352.38 179.35 356.03C180.79 359.68 175.61 371.61 185.82 378.42C196.03 385.23 212.82 380.02 216.34 386.63C219.86 393.24 214.88 400.85 226.15 406.76C237.42 412.67 249.42 403.76 253.05 409.34C256.68 414.92 257.99 430.19 266.97 436.34C279.2 444.69 295.29 444.94 313.33 432.19C331.37 419.44 336.92 398.91 346.27 382.05C355.62 365.19 368.78 369.89 384.27 363.8C399.76 357.71 402.67 344.8 403.22 331.87C403.77 318.94 400.97 313 421.66 305.79C442.35 298.58 434.2 268.32 429.5 265.94ZM373.2 353.89C367.03 348.84 356.93 305.06 356.93 305.06C356.93 296.06 364.78 312.35 367.59 314.06C370.4 315.77 365.35 300.58 363.1 296.66C360.85 292.74 374.89 306.2 384.43 331.46C393.97 356.72 379.38 358.94 373.2 353.89Z" fill="white"/>
        <path d="M365.11 283.09C364.56 282.85 363.93 282.57 363.4 282.27C363.171 282.15 362.934 282.046 362.69 281.96L362.39 281.87L362.09 281.77H362C359.696 281.31 357.35 281.092 355 281.12H354.24C354.03 281.12 353.8 281.12 353.57 281.05C353.01 279.41 352.39 277.77 351.75 276.21C351.289 274.777 351.093 273.273 351.17 271.77C351.17 269.91 351.17 268.3 350.1 267.53C349.776 267.322 349.412 267.184 349.032 267.124C348.651 267.064 348.263 267.083 347.89 267.18C346.537 267.413 345.219 267.82 343.97 268.39C343.115 268.813 342.19 269.078 341.24 269.17C340.05 267.7 338.75 265.58 339.24 264.63C339.54 264.02 340.18 262.98 340.85 261.88C341.52 260.78 342.04 259.88 342.51 259.11V259.06L342.99 258.2C342.99 258.13 343.06 258.06 343.09 258L343.38 257.42L343.47 257.23C343.54 257.07 343.6 256.93 343.65 256.8C343.664 256.745 343.684 256.691 343.71 256.64C343.755 256.496 343.792 256.349 343.82 256.2C343.87 256.018 343.864 255.824 343.801 255.645C343.739 255.467 343.623 255.311 343.47 255.2C342.88 254.79 341.98 255.11 340.62 255.61C339.99 255.83 339.28 256.09 338.56 256.28C338.298 256.357 338.041 256.451 337.79 256.56L337.45 256.72L337.21 256.84C335.628 257.85 334.25 259.149 333.15 260.67L332.81 261.1C331.981 261.831 331.03 262.41 330 262.81L329.88 262.87C329.49 263.04 329.14 263.21 328.82 263.38C328.427 263.562 328.058 263.79 327.72 264.06C327.475 264.222 327.281 264.45 327.159 264.716C327.037 264.983 326.992 265.279 327.03 265.57C327.16 266.34 327.97 267.04 329.51 267.71L329.66 267.77C330.93 268.32 332.55 269.04 333.79 269.6C333.056 269.719 332.38 270.069 331.86 270.6C331.21 271.6 331.65 273.94 334.12 276.76C336.59 279.58 338.18 283.08 338.23 284.76C338.23 285.6 338.23 285.6 337.09 285.67C336.65 285.67 336.09 285.73 335.4 285.82C332.85 286.14 318.51 285.68 313.11 285.5H312.11C306.088 285.247 300.059 285.744 294.16 286.98C293.09 287.225 292.043 287.559 291.03 287.98C290.688 286.496 289.78 285.204 288.5 284.38L288.95 284.09C291.77 282.39 293.43 280.22 293.88 277.62C294.73 272.81 291.3 267.68 288.27 264.23C285.24 260.78 280.12 258.53 274.66 258.35C270.36 258.2 266.52 259.35 264.43 261.43C263.62 262.23 262.87 263.02 262.18 263.76C260.13 265.94 258.52 267.66 256.95 267.76C256.103 267.725 255.302 267.367 254.71 266.76C254.21 266.32 253.76 265.88 253.33 265.48C250.63 262.92 248.69 261.07 242.45 262.95C239.93 263.71 238.36 265.05 237.77 266.95C236.77 270.02 238.77 273.63 240.99 275.95C241.754 276.838 242.189 277.962 242.222 279.133C242.254 280.304 241.883 281.451 241.17 282.38C240.196 283.797 238.706 284.776 237.02 285.11C236.13 284.69 235.19 284.28 234.18 283.89C229.065 281.966 223.818 280.412 218.48 279.24C217.96 278.85 215.73 277.35 213.48 278.02C212.82 278.167 212.24 278.558 211.856 279.114C211.473 279.67 211.313 280.351 211.41 281.02L206.21 284.54C205.64 284.81 198.82 288.08 194.21 290.46C190.169 292.443 185.919 293.969 181.54 295.01C180.854 295.106 180.162 295.143 179.47 295.12C177.71 295.12 176.18 295.12 175.78 295.92C175.59 296.27 175.69 296.66 176.06 297.09C178.786 299.851 181.696 302.423 184.77 304.79C187.55 306.97 196.21 312.15 200.06 312.5C203.31 312.79 207.58 313.61 208.23 313.74C208.87 314.08 211.85 315.59 213.91 315.59C214.287 315.601 214.661 315.533 215.01 315.39C216.51 314.71 216.38 313.08 216.01 311.94C220.377 310.588 224.59 308.781 228.58 306.55L228.7 306.48C230.467 306.722 232.247 306.856 234.03 306.88C234.904 306.864 235.778 306.928 236.64 307.07C237.05 307.19 238.44 307.78 240.21 308.52C244.21 310.2 250.21 312.74 254.59 314.09C257.59 315 259.59 315.63 260.91 315.63C261.407 315.653 261.899 315.524 262.32 315.26C263.18 314.65 263.18 313.41 263.07 312.26C263.004 311.731 262.848 311.217 262.61 310.74C267.19 310.94 272.06 311.02 275.26 310.94C281.48 310.8 293.18 312.56 293.26 312.58H293.35C293.485 312.58 293.615 312.534 293.72 312.45C293.781 312.402 293.828 312.339 293.858 312.267C293.887 312.195 293.899 312.117 293.89 312.04L293.71 310.16C293.689 309.724 293.744 309.288 293.87 308.87C294.52 308.98 295.17 309.1 295.75 309.26C300.438 310.539 304.964 312.351 309.24 314.66C312.536 316.464 316.223 317.439 319.98 317.5C320.988 317.513 321.994 317.412 322.98 317.2C323.876 317.06 324.733 316.739 325.502 316.258C326.27 315.776 326.933 315.145 327.45 314.4C329.021 311.728 330.317 308.903 331.32 305.97C331.796 304.549 332.392 303.171 333.1 301.85C334.3 299.96 337.71 297.43 338.43 296.91C342.452 296.774 346.461 296.373 350.43 295.71C354.54 294.81 356.43 291.95 355.55 288.06C355.41 287.42 355.23 286.72 355.03 286.01H356.43C358.84 285.92 361.43 285.82 363.37 285.68H363.44H363.92H364.05H364.42H364.57H364.85H365.01H365.24H365.38L365.69 285.63C366.05 285.55 366.8 285.4 366.87 284.84C366.94 284.28 366.33 283.62 365.11 283.09Z" fill="#C9B4EC"/>
        <path opacity="0.7" d="M365.11 283.09C364.56 282.85 363.93 282.57 363.4 282.27C363.171 282.15 362.934 282.046 362.69 281.96L362.39 281.87L362.09 281.77H362C359.696 281.31 357.35 281.092 355 281.12H354.24C354.03 281.12 353.8 281.12 353.57 281.05C353.01 279.41 352.39 277.77 351.75 276.21C351.289 274.777 351.093 273.273 351.17 271.77C351.17 269.91 351.17 268.3 350.1 267.53C349.776 267.322 349.412 267.184 349.032 267.124C348.651 267.064 348.263 267.083 347.89 267.18C346.537 267.413 345.219 267.82 343.97 268.39C343.115 268.813 342.19 269.078 341.24 269.17C340.05 267.7 338.75 265.58 339.24 264.63C339.54 264.02 340.18 262.98 340.85 261.88C341.52 260.78 342.04 259.88 342.51 259.11V259.06L342.99 258.2C342.99 258.13 343.06 258.06 343.09 258L343.38 257.42L343.47 257.23C343.54 257.07 343.6 256.93 343.65 256.8C343.664 256.745 343.684 256.691 343.71 256.64C343.755 256.496 343.792 256.349 343.82 256.2C343.87 256.018 343.864 255.824 343.801 255.645C343.739 255.467 343.623 255.311 343.47 255.2C342.88 254.79 341.98 255.11 340.62 255.61C339.99 255.83 339.28 256.09 338.56 256.28C338.298 256.357 338.041 256.451 337.79 256.56L337.45 256.72L337.21 256.84C335.628 257.85 334.25 259.149 333.15 260.67L332.81 261.1C331.981 261.831 331.03 262.41 330 262.81L329.88 262.87C329.49 263.04 329.14 263.21 328.82 263.38C328.427 263.562 328.058 263.79 327.72 264.06C327.475 264.222 327.281 264.45 327.159 264.716C327.037 264.983 326.992 265.279 327.03 265.57C327.16 266.34 327.97 267.04 329.51 267.71L329.66 267.77C330.93 268.32 332.55 269.04 333.79 269.6C333.056 269.719 332.38 270.069 331.86 270.6C331.21 271.6 331.65 273.94 334.12 276.76C336.59 279.58 338.18 283.08 338.23 284.76C338.23 285.6 338.23 285.6 337.09 285.67C336.65 285.67 336.09 285.73 335.4 285.82C332.85 286.14 318.51 285.68 313.11 285.5H312.11C306.088 285.247 300.059 285.744 294.16 286.98C293.09 287.225 292.043 287.559 291.03 287.98C290.688 286.496 289.78 285.204 288.5 284.38L288.95 284.09C291.77 282.39 293.43 280.22 293.88 277.62C294.73 272.81 291.3 267.68 288.27 264.23C285.24 260.78 280.12 258.53 274.66 258.35C270.36 258.2 266.52 259.35 264.43 261.43C263.62 262.23 262.87 263.02 262.18 263.76C260.13 265.94 258.52 267.66 256.95 267.76C256.103 267.725 255.302 267.367 254.71 266.76C254.21 266.32 253.76 265.88 253.33 265.48C250.63 262.92 248.69 261.07 242.45 262.95C239.93 263.71 238.36 265.05 237.77 266.95C236.77 270.02 238.77 273.63 240.99 275.95C241.754 276.838 242.189 277.962 242.222 279.133C242.254 280.304 241.883 281.451 241.17 282.38C240.196 283.797 238.706 284.776 237.02 285.11C236.13 284.69 235.19 284.28 234.18 283.89C229.065 281.966 223.818 280.412 218.48 279.24C217.96 278.85 215.73 277.35 213.48 278.02C212.82 278.167 212.24 278.558 211.856 279.114C211.473 279.67 211.313 280.351 211.41 281.02L206.21 284.54C205.64 284.81 198.82 288.08 194.21 290.46C190.169 292.443 185.919 293.969 181.54 295.01C180.854 295.106 180.162 295.143 179.47 295.12C177.71 295.12 176.18 295.12 175.78 295.92C175.59 296.27 175.69 296.66 176.06 297.09C178.786 299.851 181.696 302.423 184.77 304.79C187.55 306.97 196.21 312.15 200.06 312.5C203.31 312.79 207.58 313.61 208.23 313.74C208.87 314.08 211.85 315.59 213.91 315.59C214.287 315.601 214.661 315.533 215.01 315.39C216.51 314.71 216.38 313.08 216.01 311.94C220.377 310.588 224.59 308.781 228.58 306.55L228.7 306.48C230.467 306.722 232.247 306.856 234.03 306.88C234.904 306.864 235.778 306.928 236.64 307.07C237.05 307.19 238.44 307.78 240.21 308.52C244.21 310.2 250.21 312.74 254.59 314.09C257.59 315 259.59 315.63 260.91 315.63C261.407 315.653 261.899 315.524 262.32 315.26C263.18 314.65 263.18 313.41 263.07 312.26C263.004 311.731 262.848 311.217 262.61 310.74C267.19 310.94 272.06 311.02 275.26 310.94C281.48 310.8 293.18 312.56 293.26 312.58H293.35C293.485 312.58 293.615 312.534 293.72 312.45C293.781 312.402 293.828 312.339 293.858 312.267C293.887 312.195 293.899 312.117 293.89 312.04L293.71 310.16C293.689 309.724 293.744 309.288 293.87 308.87C294.52 308.98 295.17 309.1 295.75 309.26C300.438 310.539 304.964 312.351 309.24 314.66C312.536 316.464 316.223 317.439 319.98 317.5C320.988 317.513 321.994 317.412 322.98 317.2C323.876 317.06 324.733 316.739 325.502 316.258C326.27 315.776 326.933 315.145 327.45 314.4C329.021 311.728 330.317 308.903 331.32 305.97C331.796 304.549 332.392 303.171 333.1 301.85C334.3 299.96 337.71 297.43 338.43 296.91C342.452 296.774 346.461 296.373 350.43 295.71C354.54 294.81 356.43 291.95 355.55 288.06C355.41 287.42 355.23 286.72 355.03 286.01H356.43C358.84 285.92 361.43 285.82 363.37 285.68H363.44H363.92H364.05H364.42H364.57H364.85H365.01H365.24H365.38L365.69 285.63C366.05 285.55 366.8 285.4 366.87 284.84C366.94 284.28 366.33 283.62 365.11 283.09Z" fill="white"/>
    </g>
    <path d="M241.85 225.51C241.85 225.51 180.23 270.95 164.85 282.16C149.47 293.37 146.25 294.67 145.66 299.16C145.07 303.65 140.19 318.73 137.8 323.43C135.41 328.13 138.33 330.75 140.61 331.73C142.602 332.434 144.675 332.884 146.78 333.07C146.78 333.07 139.78 339.13 143.96 342.65C148.14 346.17 158.25 345.49 158.25 345.49C158.25 345.49 155.7 352.14 161.45 355.99C167.2 359.84 177.89 352.34 179.33 355.99C180.77 359.64 175.59 371.57 185.8 378.38C196.01 385.19 212.8 379.98 216.32 386.59C219.84 393.2 214.86 400.81 226.13 406.72C237.4 412.63 249.4 403.72 253.03 409.3C256.66 414.88 257.97 430.15 266.95 436.3C279.18 444.65 295.27 444.9 313.31 432.15C331.35 419.4 336.9 398.87 346.25 382.01C355.6 365.15 368.76 369.85 384.25 363.76C399.74 357.67 402.65 344.76 403.2 331.83C403.75 318.9 400.95 312.96 421.64 305.75C442.33 298.54 434.19 268.34 429.49 265.96C424.79 263.58 399.17 251.08 392.11 248.69C385.05 246.3 257.11 221.38 257.11 221.38C257.11 221.38 247.4 220.5 241.85 225.51Z" stroke="#263238" stroke-linecap="round" stroke-linejoin="round"/>
    <path d="M146.81 333C146.81 333 153.31 317.26 153.04 307" stroke="#263238" stroke-linecap="round" stroke-linejoin="round"/>
    <path d="M158.28 345.46C158.28 345.46 165.85 328.83 166.18 314.12" stroke="#263238" stroke-linecap="round" stroke-linejoin="round"/>
    <path d="M182.74 333.48C184.188 327.991 184.494 322.263 183.64 316.65C183.64 316.65 187.82 324.89 184.98 339.18" stroke="#263238" stroke-linecap="round" stroke-linejoin="round"/>
    <path d="M217.6 381.38C219.53 370.74 218.89 338.06 218.89 338.06C218.89 338.06 216.33 360.24 213.53 367.46" stroke="#263238" stroke-linecap="round" stroke-linejoin="round"/>
    <path d="M256.64 362.24L258.7 387.78" stroke="#263238" stroke-linecap="round" stroke-linejoin="round"/>
    <path d="M254.37 361.25L251.31 386.93" stroke="#263238" stroke-linecap="round" stroke-linejoin="round"/>
    <path d="M291.47 355.11L315.87 383.61" stroke="#263238" stroke-linecap="round" stroke-linejoin="round"/>
    <path d="M292.87 352.68L310.42 369.77" stroke="#263238" stroke-linecap="round" stroke-linejoin="round"/>
    <path d="M343.65 311.81L360.92 336.71" stroke="#263238" stroke-linecap="round" stroke-linejoin="round"/>
    <path d="M340.7 312.55L351.68 329.99" stroke="#263238" stroke-linecap="round" stroke-linejoin="round"/>
    <path d="M395.12 310.06L379.68 278.03L392.52 295.09" stroke="#263238" stroke-linecap="round" stroke-linejoin="round"/>
    <path d="M176.16 135C176.16 135 166 143.49 159.24 149.67C153.85 154.409 147.736 158.255 141.13 161.06C138.79 161.92 131.81 160.23 133.82 164.27C135.83 168.31 141.76 177.27 146.02 183.14C150.28 189.01 162.14 201.14 167.2 201.92C171.205 202.687 175.149 203.747 179 205.09C179 205.09 185.48 211.2 188 209.24C190.52 207.28 188.71 201.03 188.71 201.03C195.469 197.459 201.638 192.868 207 187.42C216.3 178.13 230.44 158.7 230.44 158.7C230.44 158.7 240.06 158.89 240.31 156.7C240.56 154.51 231.62 150.33 231.62 150.33C227.091 143.814 221.431 138.162 214.91 133.64C207.946 129 200.491 125.144 192.68 122.14C192.68 122.14 189.39 117.51 186.29 119.14C183.19 120.77 183.96 125.83 183.96 125.83L176.16 135Z" fill="white"/>
    <mask id="mask1_3_59" style="mask-type:luminance" maskUnits="userSpaceOnUse" x="133" y="118" width="108" height="92">
        <path d="M176.16 135C176.16 135 166 143.49 159.24 149.67C153.85 154.409 147.736 158.255 141.13 161.06C138.79 161.92 131.81 160.23 133.82 164.27C135.83 168.31 141.76 177.27 146.02 183.14C150.28 189.01 162.14 201.14 167.2 201.92C171.205 202.687 175.149 203.747 179 205.09C179 205.09 185.48 211.2 188 209.24C190.52 207.28 188.71 201.03 188.71 201.03C195.469 197.459 201.638 192.868 207 187.42C216.3 178.13 230.44 158.7 230.44 158.7C230.44 158.7 240.06 158.89 240.31 156.7C240.56 154.51 231.62 150.33 231.62 150.33C227.091 143.814 221.431 138.162 214.91 133.64C207.946 129 200.491 125.144 192.68 122.14C192.68 122.14 189.39 117.51 186.29 119.14C183.19 120.77 183.96 125.83 183.96 125.83L176.16 135Z" fill="white"/>
    </mask>
    <g mask="url(#mask1_3_59)">
        <path d="M230.41 158.7C230.41 158.7 238.14 158.85 239.91 157.28C236.76 154.54 233.97 152.28 233.28 151.73C231.59 150.31 182.28 132.05 173.44 150.92C173.44 150.92 170.63 152.13 170.63 154.54V161.77C170.63 161.77 167.01 159.77 164.2 159.77C161.39 159.77 152.2 162.58 152.2 162.58C152.2 162.58 164.6 161 168.62 165C172.64 169 179.06 179.86 179.86 181.87C180.66 183.88 180.27 191.51 181.47 188.29C182.67 185.07 182.27 174.24 182.27 174.24C182.27 174.24 185.89 175.44 190.71 180.66C195.53 185.88 195.12 194.32 195.12 195.92C195.191 196.27 195.349 196.597 195.58 196.87C199.669 194.078 203.492 190.914 207 187.42C216.27 178.13 230.41 158.7 230.41 158.7Z" fill="#C9B4EC"/>
        <path opacity="0.7" d="M230.41 158.7C230.41 158.7 238.14 158.85 239.91 157.28C236.76 154.54 233.97 152.28 233.28 151.73C231.59 150.31 182.28 132.05 173.44 150.92C173.44 150.92 170.63 152.13 170.63 154.54V161.77C170.63 161.77 167.01 159.77 164.2 159.77C161.39 159.77 152.2 162.58 152.2 162.58C152.2 162.58 164.6 161 168.62 165C172.64 169 179.06 179.86 179.86 181.87C180.66 183.88 180.27 191.51 181.47 188.29C182.67 185.07 182.27 174.24 182.27 174.24C182.27 174.24 185.89 175.44 190.71 180.66C195.53 185.88 195.12 194.32 195.12 195.92C195.191 196.27 195.349 196.597 195.58 196.87C199.669 194.078 203.492 190.914 207 187.42C216.27 178.13 230.41 158.7 230.41 158.7Z" fill="white"/>
    </g>
    <path d="M176.16 135C176.16 135 166 143.49 159.24 149.67C153.85 154.409 147.736 158.255 141.13 161.06C138.79 161.92 131.81 160.23 133.82 164.27C135.83 168.31 141.76 177.27 146.02 183.14C150.28 189.01 162.14 201.14 167.2 201.92C171.205 202.687 175.149 203.747 179 205.09C179 205.09 185.48 211.2 188 209.24C190.52 207.28 188.71 201.03 188.71 201.03C195.469 197.459 201.638 192.868 207 187.42C216.3 178.13 230.44 158.7 230.44 158.7C230.44 158.7 240.06 158.89 240.31 156.7C240.56 154.51 231.62 150.33 231.62 150.33C227.091 143.814 221.431 138.162 214.91 133.64C207.946 129 200.491 125.144 192.68 122.14C192.68 122.14 189.39 117.51 186.29 119.14C183.19 120.77 183.96 125.83 183.96 125.83L176.16 135Z" stroke="#263238" stroke-linecap="round" stroke-linejoin="round"/>
    <path d="M183 204.65C183 204.65 178.61 199.89 165.65 187.65C152.69 175.41 149.45 172.36 145.15 170.75C140.85 169.14 139.62 170.12 139.62 170.12C139.62 170.12 148.17 180 155.76 186.25C163.35 192.5 183 204.65 183 204.65Z" fill="#263238" stroke="#263238" stroke-linecap="round" stroke-linejoin="round"/>
    <path d="M193.51 176.09C193.51 176.09 198.76 183.21 204.61 185.99C210.46 188.77 217.09 187.57 219.01 188.59C220.93 189.61 235.38 201.06 244.38 205.95C253.38 210.84 255.87 212.07 255.38 202.74C254.89 193.41 246.82 188.54 243.67 182.83C240.52 177.12 213.14 169.83 211.89 173.26C210.64 176.69 213.7 181.76 213.7 181.76C213.7 181.76 191.31 171.37 193.51 176.09Z" fill="white" stroke="#263238" stroke-linecap="round" stroke-linejoin="round"/>
    <path d="M285.34 135.28C285.34 135.28 286.72 130.56 290.71 133.96C294.7 137.36 295.57 144.86 294.9 152.13C294.23 159.4 290.3 168.41 283.13 160.27C275.96 152.13 285.34 135.28 285.34 135.28Z" fill="#263238" stroke="#263238" stroke-linecap="round" stroke-linejoin="round"/>
    <path d="M358.81 98.27C358.81 98.27 353.49 94.05 350.15 91.54C346.81 89.03 346.4 86.54 347.81 84.49C349.22 82.44 353.66 80.08 355.09 77.01C356.52 73.94 359.33 67.12 362.87 65.46C366.41 63.8 369.6 60.4 369.32 63.88C369.04 67.36 364.14 80 362.86 84.39C361.58 88.78 366.57 98.47 366.57 98.47L359.34 100.41L358.81 98.27Z" fill="white" stroke="#263238" stroke-linecap="round" stroke-linejoin="round"/>
    <path d="M347.81 84.49C346.4 86.58 346.81 89.02 350.15 91.54L350.36 91.69C351.535 89.6663 352.065 87.3326 351.88 85C351.774 83.815 351.434 82.6628 350.88 81.61C349.737 82.4338 348.705 83.4018 347.81 84.49Z" fill="#263238" stroke="#263238" stroke-linecap="round" stroke-linejoin="round"/>
    <path d="M362.87 65.46C362.232 65.78 361.651 66.2023 361.15 66.71C362.99 68.2684 365.023 69.5826 367.2 70.62C367.3 70.62 367.4 70.62 367.5 70.7C368.306 68.4847 368.916 66.2025 369.32 63.88C369.6 60.4 366.41 63.81 362.87 65.46Z" fill="#263238" stroke="#263238" stroke-linecap="round" stroke-linejoin="round"/>
    <path d="M368.23 138.5C368.23 138.5 369.86 131.96 370.77 127.92C371.68 123.88 373.59 122.55 375.86 123.05C378.13 123.55 381.66 126.75 384.76 126.89C387.86 127.03 394.59 127 397.25 129.63C399.91 132.26 403.92 133.9 400.89 134.98C397.86 136.06 385.52 136.38 381.34 136.9C377.16 137.42 370.85 145.74 370.85 145.74L366.61 139.81L368.23 138.5Z" fill="white" stroke="#263238" stroke-linecap="round" stroke-linejoin="round"/>
    <path d="M375.86 123.05C373.59 122.55 371.69 123.88 370.77 127.92C370.765 128.003 370.765 128.087 370.77 128.17C372.887 128.471 375.043 128.059 376.9 127C377.872 126.433 378.72 125.674 379.39 124.77C378.296 124.041 377.108 123.463 375.86 123.05Z" stroke="#263238" stroke-linecap="round" stroke-linejoin="round"/>
    <path d="M397.25 129.63C396.756 129.173 396.192 128.799 395.58 128.52C394.932 130.831 394.559 133.211 394.47 135.61C394.465 135.713 394.465 135.817 394.47 135.92C396.622 135.815 398.759 135.5 400.85 134.98C403.92 133.9 399.91 132.26 397.25 129.63Z" fill="#263238" stroke="#263238" stroke-linecap="round" stroke-linejoin="round"/>
    <path d="M283.79 157.56C283.79 157.56 291.3 144.95 300.13 141.29C308.96 137.63 318.87 137.29 325.27 137.68C331.67 138.07 354.34 139.4 358.27 138.53C362.2 137.66 363.02 138.95 362.93 134.68C362.84 130.41 360.56 121.41 356.93 114.23C353.3 107.05 353.17 102.1 353.8 100.37C354.43 98.64 359.04 96.72 364.36 97.37C369.68 98.02 370.07 94.22 375.94 92.43C381.81 90.64 378.34 104.72 380.53 114C382.72 123.28 384.85 134.5 385.98 143.07C387.11 151.64 384.98 158.38 379.31 160.57C373.64 162.76 362.25 163.57 362.25 163.57C362.25 163.57 356.33 170.89 354.35 176.37C352.37 181.85 350.43 196.17 346.35 207.42C342.27 218.67 328.69 214.73 321.79 207.65C314.89 200.57 305.6 195.58 302.53 194.15C299.46 192.72 295.4 192.21 293.67 191.59C291.94 190.97 294.95 183.59 291.03 173.66C287.11 163.73 282.66 159.77 283.79 157.56Z" fill="#C9B4EC"/>
    <mask id="mask2_3_59" style="mask-type:luminance" maskUnits="userSpaceOnUse" x="283" y="92" width="104" height="123">
        <path d="M283.79 157.56C283.79 157.56 291.3 144.95 300.13 141.29C308.96 137.63 318.87 137.29 325.27 137.68C331.67 138.07 354.34 139.4 358.27 138.53C362.2 137.66 363.02 138.95 362.93 134.68C362.84 130.41 360.56 121.41 356.93 114.23C353.3 107.05 353.17 102.1 353.8 100.37C354.43 98.64 359.04 96.72 364.36 97.37C369.68 98.02 370.07 94.22 375.94 92.43C381.81 90.64 378.34 104.72 380.53 114C382.72 123.28 384.85 134.5 385.98 143.07C387.11 151.64 384.98 158.38 379.31 160.57C373.64 162.76 362.25 163.57 362.25 163.57C362.25 163.57 356.33 170.89 354.35 176.37C352.37 181.85 350.43 196.17 346.35 207.42C342.27 218.67 328.69 214.73 321.79 207.65C314.89 200.57 305.6 195.58 302.53 194.15C299.46 192.72 295.4 192.21 293.67 191.59C291.94 190.97 294.95 183.59 291.03 173.66C287.11 163.73 282.66 159.77 283.79 157.56Z" fill="white"/>
    </mask>
    <g mask="url(#mask2_3_59)">
        <path opacity="0.15" d="M386 143C384.87 134.43 382.73 123.21 380.55 113.93C379.2 108.24 379.99 100.74 379.45 96.21C376.68 105.93 373.28 120.91 373.84 125.99C374.64 133.21 381.84 140.04 378.66 139.64C375.48 139.24 368.24 138.46 368.66 140.04C369.08 141.62 380.31 146.87 378.66 146.87C377.01 146.87 370.66 140.04 369.42 144.87C368.18 149.7 373.42 152.1 358.18 150.49C342.94 148.88 325.65 149.69 322.44 151.7C319.23 153.71 306.37 170.17 305.17 168.56C303.97 166.95 312.4 157.32 310.79 155.31C309.18 153.3 309.19 159.73 301.56 164.95C293.93 170.17 294.33 169.77 294.33 169.77L290.83 173.02C290.9 173.2 290.98 173.36 291.05 173.55C294.97 183.45 291.96 190.85 293.69 191.48C295.42 192.11 299.48 192.6 302.55 194.04C305.62 195.48 314.91 200.47 321.81 207.54C328.71 214.61 342.3 218.54 346.37 207.31C350.44 196.08 352.37 181.74 354.37 176.26C356.37 170.78 362.27 163.46 362.27 163.46C362.27 163.46 373.65 162.69 379.33 160.46C385.01 158.23 387.13 151.61 386 143Z" fill="black"/>
    </g>
    <path d="M283.79 157.56C283.79 157.56 291.3 144.95 300.13 141.29C308.96 137.63 318.87 137.29 325.27 137.68C331.67 138.07 354.34 139.4 358.27 138.53C362.2 137.66 363.02 138.95 362.93 134.68C362.84 130.41 360.56 121.41 356.93 114.23C353.3 107.05 353.17 102.1 353.8 100.37C354.43 98.64 359.04 96.72 364.36 97.37C369.68 98.02 370.07 94.22 375.94 92.43C381.81 90.64 378.34 104.72 380.53 114C382.72 123.28 384.85 134.5 385.98 143.07C387.11 151.64 384.98 158.38 379.31 160.57C373.64 162.76 362.25 163.57 362.25 163.57C362.25 163.57 356.33 170.89 354.35 176.37C352.37 181.85 350.43 196.17 346.35 207.42C342.27 218.67 328.69 214.73 321.79 207.65C314.89 200.57 305.6 195.58 302.53 194.15C299.46 192.72 295.4 192.21 293.67 191.59C291.94 190.97 294.95 183.59 291.03 173.66C287.11 163.73 282.66 159.77 283.79 157.56Z" stroke="#263238" stroke-linecap="round" stroke-linejoin="round"/>
    <path d="M196.87 173.13C196.87 173.13 198.59 173.7 185.46 173.7C172.33 173.7 165.46 161.7 169.46 158.3C173.46 154.9 175.17 154.88 175.17 154.88C175.17 154.88 164.33 154.88 176.31 140.61C188.29 126.34 203.12 132.61 213.96 136.61C224.8 140.61 230.51 121.78 225.37 112.08C220.23 102.38 217.37 86.98 227.08 81.84C236.79 76.7 238.52 83 243.66 91C248.8 99 252.22 88.72 258.49 77.88C264.76 67.04 282.49 67.61 291.01 84.72C299.53 101.83 303.01 120.72 292.15 132.08C281.29 143.44 281.88 164 264.2 164C246.52 164 218.55 152 203.2 157.72C187.85 163.44 196.87 173.13 196.87 173.13Z" fill="#263238" stroke="#263238" stroke-linecap="round" stroke-linejoin="round"/>
    <path d="M183.46 148.28C186.25 144.4 190.27 140.06 195.16 138.33C204.86 134.91 217.98 141.19 243.09 144.04C268.2 146.89 277.32 142.33 283.59 124.04C289.86 105.75 283.02 85.24 276.18 85.24C269.34 85.24 263.63 98.37 267.62 102.36C271.61 106.35 279 101.82 279 96.11C279 90.4 272.15 96.11 272.15 96.11" stroke="white" stroke-linecap="round" stroke-linejoin="round"/>
    <path d="M179.19 155.45C179.19 155.45 179.78 154.16 180.88 152.27" stroke="white" stroke-linecap="round" stroke-linejoin="round"/>
    <path d="M266.42 125.68C267.739 124.242 268.732 122.537 269.33 120.68" stroke="white" stroke-linecap="round" stroke-linejoin="round"/>
    <path d="M233.39 137.19C233.39 137.19 251.39 136.19 262.08 129.31" stroke="white" stroke-linecap="round" stroke-linejoin="round"/>
    <path d="M233.39 96.69C233.39 96.69 239.47 101.62 240.61 93.07C241.75 84.52 232.25 83 228.25 88.13C224.25 93.26 231.11 106.38 235.1 114.94C239.09 123.5 236.81 132.06 228.25 134.94" stroke="white" stroke-linecap="round" stroke-linejoin="round"/>
    <path d="M187 153.48C187 153.48 202.52 154.48 209.27 150.1C216.02 145.72 217.37 143.01 223.45 142.68" stroke="white" stroke-linecap="round" stroke-linejoin="round"/>
    <path d="M215.08 164.32C214.554 161.894 214.355 159.409 214.49 156.93C214.62 152.08 216.66 148.25 225.79 151.88C234.92 155.51 251.21 163.71 260 163C268.79 162.29 278.23 148.72 279.7 144.68C281.17 140.64 285.38 135.32 285.38 135.32C285.38 135.32 281.06 144.53 283.92 150.13C286.78 155.73 297.23 161.13 299.31 174.32C301.39 187.51 298.44 192.93 298.71 197.6L298.97 202.26C298.97 202.26 282.29 197.85 273.35 198.2C264.41 198.55 246.19 197.49 240.42 195.4C234.65 193.31 219.75 180.4 216.31 178.17C212.87 175.94 210.05 171 215.08 164.32Z" fill="#C9B4EC"/>
    <mask id="mask3_3_59" style="mask-type:luminance" maskUnits="userSpaceOnUse" x="212" y="135" width="89" height="68">
        <path d="M215.08 164.32C214.554 161.894 214.355 159.409 214.49 156.93C214.62 152.08 216.66 148.25 225.79 151.88C234.92 155.51 251.21 163.71 260 163C268.79 162.29 278.23 148.72 279.7 144.68C281.17 140.64 285.38 135.32 285.38 135.32C285.38 135.32 281.06 144.53 283.92 150.13C286.78 155.73 297.23 161.13 299.31 174.32C301.39 187.51 298.44 192.93 298.71 197.6L298.97 202.26C298.97 202.26 282.29 197.85 273.35 198.2C264.41 198.55 246.19 197.49 240.42 195.4C234.65 193.31 219.75 180.4 216.31 178.17C212.87 175.94 210.05 171 215.08 164.32Z" fill="white"/>
    </mask>
    <g mask="url(#mask3_3_59)">
        <path opacity="0.15" d="M298.67 197.56C298.43 193.39 300.74 188.56 299.77 178.27C296.112 178.503 292.513 179.303 289.1 180.64C281.1 183.85 271.83 183.85 273.03 183.05C274.23 182.25 287.49 176.22 291.03 173.58C294.57 170.94 265.8 184.26 257 179.44C248.2 174.62 224.84 160.56 220.42 161C216 161.44 218.01 167.83 218.01 167.83L212.79 168.63C212.176 170.377 212.188 172.283 212.822 174.023C213.457 175.763 214.675 177.228 216.27 178.17C219.71 180.4 234.61 193.31 240.38 195.4C246.15 197.49 264.38 198.55 273.31 198.2C282.24 197.85 298.93 202.26 298.93 202.26L298.67 197.56Z" fill="black"/>
    </g>
    <path d="M215.08 164.32C214.554 161.894 214.355 159.409 214.49 156.93C214.62 152.08 216.66 148.25 225.79 151.88C234.92 155.51 251.21 163.71 260 163C268.79 162.29 278.23 148.72 279.7 144.68C281.17 140.64 285.38 135.32 285.38 135.32C285.38 135.32 281.06 144.53 283.92 150.13C286.78 155.73 297.23 161.13 299.31 174.32C301.39 187.51 298.44 192.93 298.71 197.6L298.97 202.26C298.97 202.26 282.29 197.85 273.35 198.2C264.41 198.55 246.19 197.49 240.42 195.4C234.65 193.31 219.75 180.4 216.31 178.17C212.87 175.94 210.05 171 215.08 164.32Z" stroke="#263238" stroke-linecap="round" stroke-linejoin="round"/>
    <path d="M211.84 173.26C211.84 173.26 212.84 173.26 216.84 174.75C220.84 176.24 227.84 182.32 227.84 178.75C227.84 175.18 218.75 165 214.92 163C211.09 161 210.92 158.62 211.09 161C211.26 163.38 211.84 173.26 211.84 173.26Z" fill="white" stroke="#263238" stroke-linecap="round" stroke-linejoin="round"/>
    <path d="M192.23 173.33C192.23 173.33 192.23 176.93 197.69 179.88C203.15 182.83 208.86 186.88 213.16 185.82C217.46 184.76 219.77 185.6 219.77 185.6L247.2 194.6C256.25 197.6 261.49 197.49 263.06 193.17C264.63 188.85 254.06 174.88 242.55 164.17C235.46 157.56 219.04 148.06 214.88 149.57C212.03 150.57 209.8 154.57 215.08 160.74C220.36 166.91 232.81 173.04 237.25 177.91C241.69 182.78 242.45 184.42 242.45 184.42C242.45 184.42 222.59 181.42 217.79 179.35C212.99 177.28 210.58 176.73 208.79 175.43C207 174.13 190.47 170.09 192.23 173.33Z" fill="white" stroke="#263238" stroke-linecap="round" stroke-linejoin="round"/>
    <path d="M242.45 184.41C242.45 184.41 246.61 189.46 248.99 190.94" stroke="#263238" stroke-linecap="round" stroke-linejoin="round"/>
    <path d="M179.64 160.79C179.64 160.79 183.92 168.14 188.1 170.79C192.28 173.44 205.36 179.12 210.26 177.43C215.16 175.74 214.26 168.08 212.61 162.09C211.635 158.442 209.673 155.134 206.94 152.53C206.94 152.53 204.69 154.22 199.68 154.75C194.67 155.28 182.32 156.61 179.64 160.79Z" fill="white" stroke="#263238" stroke-linecap="round" stroke-linejoin="round"/>
    <path d="M193.09 166.47L198.49 171.36C198.49 171.36 201.27 172.7 201.49 170.18" stroke="#263238" stroke-linecap="round" stroke-linejoin="round"/>
    <path d="M203.58 173.53C203.58 173.53 207.2 172.53 206.27 167" stroke="#263238" stroke-linecap="round" stroke-linejoin="round"/>
    <path d="M196.31 162.08L197.91 163.97C197.91 163.97 200.71 164.33 201.7 159.8" stroke="#263238" stroke-linecap="round" stroke-linejoin="round"/>
    <path d="M190.68 169.51L192.57 171.51C192.57 171.51 195.08 171.77 194.57 168.65" stroke="#263238" stroke-linecap="round" stroke-linejoin="round"/>
    <path d="M192.56 160.72C192.56 160.72 192.18 156.35 197.61 156.72" stroke="#263238" stroke-linecap="round" stroke-linejoin="round"/>
    <path d="M190.7 165C190.7 165 188.18 164.74 188.47 168.43" stroke="#263238" stroke-linecap="round" stroke-linejoin="round"/>
    <path d="M362.26 163.49C362.26 163.49 328 169 320.43 174.44" stroke="#263238" stroke-linecap="round" stroke-linejoin="round"/>
    <path d="M322.41 184.29C325.434 179.143 328.939 174.294 332.88 169.81C332.88 169.81 326.16 189.24 329.58 199.62" stroke="#263238" stroke-linecap="round" stroke-linejoin="round"/>
</svg>